<svg id="svg" version="1.1" width="500" height="654" xmlns="http://www.w3.org/2000/svg" xmlns:xlink="http://www.w3.org/1999/xlink" style="display: block;"><g id="svgg"><path id="path0" d="M161.800 0.548 C 158.170 0.722,155.200 1.179,155.200 1.564 C 155.200 1.949,152.950 2.445,150.200 2.666 C 147.450 2.887,143.220 3.473,140.800 3.967 C 138.380 4.462,135.140 5.054,133.600 5.283 C 132.060 5.512,130.080 6.012,129.200 6.395 C 128.320 6.778,126.340 7.313,124.800 7.583 C 123.260 7.854,120.827 8.279,119.393 8.526 C 117.959 8.774,116.587 9.297,116.345 9.688 C 116.103 10.080,114.667 10.400,113.153 10.400 C 111.639 10.400,110.400 10.760,110.400 11.200 C 110.400 11.640,109.341 12.000,108.047 12.000 C 106.753 12.000,105.472 12.360,105.200 12.800 C 104.928 13.240,103.848 13.600,102.800 13.600 C 101.752 13.600,100.672 13.960,100.400 14.400 C 100.128 14.840,99.048 15.200,98.000 15.200 C 96.952 15.200,95.872 15.560,95.600 16.000 C 95.328 16.440,94.227 16.800,93.153 16.800 C 92.079 16.800,91.200 17.160,91.200 17.600 C 91.200 18.040,90.120 18.400,88.800 18.400 C 87.480 18.400,86.400 18.760,86.400 19.200 C 86.400 19.640,85.521 20.000,84.447 20.000 C 83.373 20.000,82.272 20.360,82.000 20.800 C 81.728 21.240,80.807 21.600,79.953 21.600 C 79.099 21.600,78.400 21.960,78.400 22.400 C 78.400 22.840,77.855 23.200,77.189 23.200 C 76.523 23.200,75.353 23.524,74.589 23.921 C 73.825 24.317,68.520 26.922,62.800 29.709 C 57.080 32.496,52.280 35.052,52.133 35.388 C 51.987 35.725,51.177 36.000,50.333 36.000 C 49.490 36.000,48.800 36.360,48.800 36.800 C 48.800 37.240,48.080 37.600,47.200 37.600 C 46.320 37.600,45.600 37.960,45.600 38.400 C 45.600 38.840,44.959 39.200,44.177 39.200 C 43.394 39.200,42.234 39.920,41.600 40.800 C 40.966 41.680,39.806 42.400,39.023 42.400 C 38.241 42.400,37.600 42.760,37.600 43.200 C 37.600 43.640,36.959 44.000,36.177 44.000 C 35.394 44.000,34.234 44.720,33.600 45.600 C 32.966 46.480,32.042 47.200,31.546 47.200 C 30.167 47.200,25.888 49.489,24.786 50.817 C 24.246 51.467,23.489 52.000,23.104 52.000 C 22.375 52.000,14.788 57.217,12.943 58.986 C 12.361 59.544,11.568 60.000,11.179 60.000 C 10.791 60.000,9.573 60.900,8.473 62.000 C 7.373 63.100,6.186 64.002,5.836 64.004 C 2.611 64.022,-0.198 69.207,0.238 74.338 C 0.884 81.956,1.296 82.450,19.777 97.800 C 25.060 102.188,26.101 101.859,39.788 91.480 C 49.200 84.344,82.777 65.600,86.149 65.600 C 86.727 65.600,87.200 65.240,87.200 64.800 C 87.200 64.360,87.745 64.000,88.411 64.000 C 89.077 64.000,90.337 63.640,91.211 63.200 C 92.085 62.760,93.515 62.040,94.389 61.600 C 95.263 61.160,96.523 60.800,97.189 60.800 C 97.855 60.800,98.400 60.440,98.400 60.000 C 98.400 59.560,99.279 59.200,100.353 59.200 C 101.427 59.200,102.528 58.840,102.800 58.400 C 103.072 57.960,104.152 57.600,105.200 57.600 C 106.248 57.600,107.328 57.240,107.600 56.800 C 107.872 56.360,108.952 56.000,110.000 56.000 C 111.048 56.000,112.128 55.640,112.400 55.200 C 112.672 54.760,113.752 54.400,114.800 54.400 C 115.848 54.400,116.928 54.040,117.200 53.600 C 117.472 53.160,118.753 52.800,120.047 52.800 C 121.341 52.800,122.400 52.440,122.400 52.000 C 122.400 51.560,123.639 51.200,125.153 51.200 C 126.667 51.200,128.103 50.880,128.345 50.488 C 128.761 49.816,129.751 49.570,137.007 48.335 C 138.661 48.054,140.213 47.503,140.455 47.112 C 140.697 46.720,142.472 46.400,144.400 46.400 C 146.328 46.400,148.128 46.040,148.400 45.600 C 148.672 45.160,150.781 44.800,153.087 44.800 C 155.393 44.800,157.622 44.467,158.040 44.060 C 161.264 40.921,238.736 40.921,241.960 44.060 C 242.378 44.467,244.607 44.800,246.913 44.800 C 249.219 44.800,251.328 45.160,251.600 45.600 C 251.872 46.040,253.672 46.400,255.600 46.400 C 257.528 46.400,259.303 46.720,259.545 47.112 C 259.961 47.784,260.951 48.030,268.207 49.265 C 269.861 49.546,271.413 50.097,271.655 50.488 C 271.897 50.880,273.333 51.200,274.847 51.200 C 276.361 51.200,277.600 51.560,277.600 52.000 C 277.600 52.440,278.659 52.800,279.953 52.800 C 281.247 52.800,282.528 53.160,282.800 53.600 C 283.072 54.040,284.152 54.400,285.200 54.400 C 286.248 54.400,287.328 54.760,287.600 55.200 C 287.872 55.640,288.952 56.000,290.000 56.000 C 291.048 56.000,292.128 56.360,292.400 56.800 C 292.672 57.240,293.752 57.600,294.800 57.600 C 295.848 57.600,296.928 57.960,297.200 58.400 C 297.472 58.840,298.573 59.200,299.647 59.200 C 300.721 59.200,301.600 59.560,301.600 60.000 C 301.600 60.440,302.145 60.800,302.811 60.800 C 303.986 60.800,304.835 61.134,308.589 63.075 C 309.573 63.584,310.923 64.000,311.589 64.000 C 312.255 64.000,312.800 64.360,312.800 64.800 C 312.800 65.240,313.273 65.600,313.851 65.600 C 315.800 65.600,339.480 77.948,346.240 82.489 C 348.132 83.760,349.858 84.800,350.076 84.800 C 350.508 84.800,358.745 90.428,367.600 96.774 C 375.683 102.566,374.440 103.006,391.081 88.471 C 399.263 81.326,399.154 81.503,399.762 74.338 C 400.198 69.207,397.389 64.022,394.164 64.004 C 393.814 64.002,392.627 63.100,391.527 62.000 C 390.427 60.900,389.209 60.000,388.821 60.000 C 388.432 60.000,387.639 59.544,387.057 58.986 C 385.212 57.217,377.625 52.000,376.896 52.000 C 376.511 52.000,375.754 51.467,375.214 50.817 C 374.112 49.489,369.833 47.200,368.454 47.200 C 367.958 47.200,367.034 46.480,366.400 45.600 C 365.766 44.720,364.606 44.000,363.823 44.000 C 363.041 44.000,362.400 43.640,362.400 43.200 C 362.400 42.760,361.759 42.400,360.977 42.400 C 360.194 42.400,359.034 41.680,358.400 40.800 C 357.766 39.920,356.606 39.200,355.823 39.200 C 355.041 39.200,354.400 38.840,354.400 38.400 C 354.400 37.960,353.710 37.600,352.867 37.600 C 352.023 37.600,351.213 37.324,351.067 36.987 C 350.920 36.650,345.400 33.734,338.800 30.508 C 332.200 27.282,326.175 24.318,325.411 23.921 C 324.647 23.525,323.477 23.200,322.811 23.200 C 322.145 23.200,321.600 22.840,321.600 22.400 C 321.600 21.960,320.901 21.600,320.047 21.600 C 319.193 21.600,318.272 21.240,318.000 20.800 C 317.728 20.360,316.627 20.000,315.553 20.000 C 314.479 20.000,313.600 19.640,313.600 19.200 C 313.600 18.760,312.520 18.400,311.200 18.400 C 309.880 18.400,308.800 18.040,308.800 17.600 C 308.800 17.160,307.921 16.800,306.847 16.800 C 305.773 16.800,304.672 16.440,304.400 16.000 C 304.128 15.560,303.048 15.200,302.000 15.200 C 300.952 15.200,299.872 14.840,299.600 14.400 C 299.328 13.960,298.248 13.600,297.200 13.600 C 296.152 13.600,295.072 13.240,294.800 12.800 C 294.528 12.360,293.247 12.000,291.953 12.000 C 290.659 12.000,289.600 11.640,289.600 11.200 C 289.600 10.760,288.361 10.400,286.847 10.400 C 285.333 10.400,283.897 10.080,283.655 9.688 C 283.413 9.297,282.041 8.774,280.607 8.526 C 279.173 8.279,276.740 7.854,275.200 7.583 C 273.660 7.313,271.680 6.778,270.800 6.395 C 269.202 5.700,265.994 5.117,259.200 4.285 C 257.220 4.043,255.258 3.520,254.840 3.122 C 254.422 2.725,252.022 2.400,249.507 2.400 C 246.628 2.400,244.813 2.040,244.609 1.427 C 244.287 0.462,178.206 -0.240,161.800 0.548 M230.800 3.200 C 231.072 3.640,234.132 4.000,237.600 4.000 C 241.068 4.000,244.128 4.360,244.400 4.800 C 244.672 5.240,247.033 5.600,249.647 5.600 C 252.282 5.600,254.400 5.956,254.400 6.400 C 254.400 6.840,256.179 7.200,258.353 7.200 C 260.527 7.200,262.528 7.560,262.800 8.000 C 263.072 8.440,264.893 8.800,266.847 8.800 C 268.801 8.800,270.400 9.160,270.400 9.600 C 270.400 10.040,271.819 10.400,273.553 10.400 C 275.287 10.400,276.928 10.760,277.200 11.200 C 277.472 11.640,278.933 12.000,280.447 12.000 C 281.961 12.000,283.200 12.360,283.200 12.800 C 283.200 13.240,284.439 13.600,285.953 13.600 C 287.467 13.600,288.928 13.960,289.200 14.400 C 289.472 14.840,290.753 15.200,292.047 15.200 C 293.341 15.200,294.400 15.560,294.400 16.000 C 294.400 16.440,295.480 16.800,296.800 16.800 C 298.120 16.800,299.200 17.160,299.200 17.600 C 299.200 18.040,300.280 18.400,301.600 18.400 C 302.920 18.400,304.000 18.760,304.000 19.200 C 304.000 19.640,305.080 20.000,306.400 20.000 C 307.720 20.000,308.800 20.360,308.800 20.800 C 308.800 21.240,309.679 21.600,310.753 21.600 C 311.827 21.600,312.928 21.960,313.200 22.400 C 313.472 22.840,314.393 23.200,315.247 23.200 C 316.101 23.200,316.800 23.560,316.800 24.000 C 316.800 24.440,317.679 24.800,318.753 24.800 C 319.827 24.800,320.928 25.160,321.200 25.600 C 321.472 26.040,322.393 26.400,323.247 26.400 C 324.101 26.400,324.800 26.760,324.800 27.200 C 324.800 27.640,325.499 28.000,326.353 28.000 C 327.207 28.000,328.128 28.360,328.400 28.800 C 328.672 29.240,329.593 29.600,330.447 29.600 C 331.301 29.600,332.000 29.960,332.000 30.400 C 332.000 30.840,332.720 31.200,333.600 31.200 C 334.480 31.200,335.200 31.560,335.200 32.000 C 335.200 32.440,335.920 32.800,336.800 32.800 C 337.680 32.800,338.400 33.160,338.400 33.600 C 338.400 34.040,339.120 34.400,340.000 34.400 C 340.880 34.400,341.600 34.760,341.600 35.200 C 341.600 35.640,342.320 36.000,343.200 36.000 C 344.080 36.000,344.800 36.360,344.800 36.800 C 344.800 37.240,345.520 37.600,346.400 37.600 C 347.280 37.600,348.000 37.960,348.000 38.400 C 348.000 38.840,348.720 39.200,349.600 39.200 C 350.480 39.200,351.200 39.516,351.200 39.903 C 351.200 40.290,352.280 41.053,353.600 41.600 C 354.920 42.147,356.000 42.910,356.000 43.297 C 356.000 43.684,356.720 44.000,357.600 44.000 C 358.480 44.000,359.200 44.360,359.200 44.800 C 359.200 45.240,359.755 45.600,360.433 45.600 C 361.112 45.600,362.440 46.320,363.384 47.200 C 364.329 48.080,365.574 48.800,366.151 48.800 C 366.728 48.800,367.200 49.160,367.200 49.600 C 367.200 50.040,367.556 50.400,367.992 50.400 C 369.287 50.400,387.588 62.674,390.225 65.310 C 390.824 65.910,391.559 66.406,391.857 66.413 C 396.119 66.513,398.871 74.094,395.400 76.173 C 394.190 76.898,391.220 79.364,388.800 81.652 C 386.380 83.941,382.780 87.115,380.800 88.707 C 378.820 90.298,377.080 91.870,376.933 92.200 C 376.062 94.162,370.696 91.315,362.263 84.417 C 361.528 83.816,360.111 82.887,359.114 82.354 C 358.117 81.820,356.580 80.712,355.700 79.892 C 354.819 79.071,353.626 78.400,353.049 78.400 C 352.472 78.400,352.000 78.040,352.000 77.600 C 352.000 77.160,351.528 76.800,350.951 76.800 C 350.374 76.800,349.204 76.166,348.351 75.392 C 347.498 74.618,345.090 73.088,343.000 71.993 C 340.910 70.899,339.200 69.732,339.200 69.401 C 339.200 69.071,338.510 68.800,337.667 68.800 C 336.823 68.800,336.013 68.526,335.867 68.190 C 335.509 67.373,319.070 59.187,317.800 59.194 C 317.250 59.197,316.800 58.840,316.800 58.400 C 316.800 57.960,316.080 57.600,315.200 57.600 C 314.320 57.600,313.600 57.240,313.600 56.800 C 313.600 56.360,312.700 56.000,311.600 56.000 C 310.500 56.000,309.600 55.640,309.600 55.200 C 309.600 54.760,309.055 54.400,308.389 54.400 C 307.723 54.400,306.463 54.040,305.589 53.600 C 304.715 53.160,303.285 52.440,302.411 52.000 C 301.537 51.560,300.097 51.200,299.211 51.200 C 298.325 51.200,297.600 50.840,297.600 50.400 C 297.600 49.960,296.721 49.600,295.647 49.600 C 294.573 49.600,293.472 49.240,293.200 48.800 C 292.928 48.360,291.848 48.000,290.800 48.000 C 289.752 48.000,288.672 47.640,288.400 47.200 C 288.128 46.760,287.048 46.400,286.000 46.400 C 284.952 46.400,283.872 46.040,283.600 45.600 C 283.328 45.160,282.068 44.800,280.800 44.800 C 279.532 44.800,278.272 44.440,278.000 44.000 C 277.728 43.560,276.468 43.200,275.200 43.200 C 273.932 43.200,272.672 42.840,272.400 42.400 C 272.128 41.960,270.688 41.600,269.200 41.600 C 267.712 41.600,266.295 41.278,266.052 40.885 C 265.809 40.491,264.258 39.969,262.605 39.725 C 260.952 39.481,257.620 38.887,255.200 38.404 C 237.364 34.848,227.220 34.045,200.000 34.034 C 173.169 34.023,162.567 34.862,144.800 38.404 C 142.380 38.887,139.048 39.481,137.395 39.725 C 135.742 39.969,134.191 40.491,133.948 40.885 C 133.705 41.278,132.288 41.600,130.800 41.600 C 129.312 41.600,127.872 41.960,127.600 42.400 C 127.328 42.840,126.068 43.200,124.800 43.200 C 123.532 43.200,122.272 43.560,122.000 44.000 C 121.728 44.440,120.468 44.800,119.200 44.800 C 117.932 44.800,116.672 45.160,116.400 45.600 C 116.128 46.040,115.048 46.400,114.000 46.400 C 112.952 46.400,111.872 46.760,111.600 47.200 C 111.328 47.640,110.248 48.000,109.200 48.000 C 108.152 48.000,107.072 48.360,106.800 48.800 C 106.528 49.240,105.427 49.600,104.353 49.600 C 103.279 49.600,102.400 49.960,102.400 50.400 C 102.400 50.840,101.675 51.200,100.789 51.200 C 99.903 51.200,98.463 51.560,97.589 52.000 C 96.715 52.440,95.285 53.160,94.411 53.600 C 93.537 54.040,92.277 54.400,91.611 54.400 C 90.945 54.400,90.400 54.760,90.400 55.200 C 90.400 55.640,89.500 56.000,88.400 56.000 C 87.300 56.000,86.400 56.360,86.400 56.800 C 86.400 57.240,85.680 57.600,84.800 57.600 C 83.920 57.600,83.200 57.960,83.200 58.400 C 83.200 58.840,82.711 59.200,82.112 59.200 C 80.798 59.200,70.910 64.153,70.533 65.000 C 70.387 65.330,69.577 65.600,68.733 65.600 C 67.890 65.600,67.200 65.960,67.200 66.400 C 67.200 66.840,66.480 67.200,65.600 67.200 C 64.720 67.200,63.997 67.470,63.994 67.800 C 63.990 68.130,63.180 68.796,62.194 69.281 C 57.183 71.741,53.041 74.144,51.650 75.400 C 50.797 76.170,49.626 76.800,49.049 76.800 C 48.472 76.800,48.000 77.160,48.000 77.600 C 48.000 78.040,47.550 78.400,47.000 78.401 C 46.450 78.402,44.954 79.302,43.676 80.401 C 42.397 81.500,41.073 82.400,40.733 82.400 C 40.393 82.400,39.639 82.862,39.057 83.426 C 38.476 83.991,36.740 85.323,35.200 86.388 C 33.660 87.452,32.220 88.538,32.000 88.800 C 29.706 91.536,23.775 93.793,23.067 92.200 C 22.920 91.870,20.465 89.620,17.611 87.200 C 14.756 84.780,11.156 81.605,9.611 80.144 C 8.065 78.684,5.810 76.896,4.600 76.172 C 1.129 74.094,3.881 66.513,8.143 66.413 C 8.441 66.406,9.161 65.925,9.743 65.345 C 12.240 62.852,30.770 50.400,31.981 50.400 C 32.432 50.400,32.800 50.040,32.800 49.600 C 32.800 49.160,33.272 48.800,33.849 48.800 C 34.426 48.800,35.671 48.080,36.616 47.200 C 37.560 46.320,38.888 45.600,39.567 45.600 C 40.245 45.600,40.800 45.240,40.800 44.800 C 40.800 44.360,41.520 44.000,42.400 44.000 C 43.280 44.000,44.000 43.640,44.000 43.200 C 44.000 42.760,44.472 42.400,45.049 42.400 C 45.626 42.400,46.871 41.680,47.816 40.800 C 48.760 39.920,50.088 39.200,50.767 39.200 C 51.445 39.200,52.000 38.840,52.000 38.400 C 52.000 37.960,52.720 37.600,53.600 37.600 C 54.480 37.600,55.200 37.240,55.200 36.800 C 55.200 36.360,55.920 36.000,56.800 36.000 C 57.680 36.000,58.400 35.640,58.400 35.200 C 58.400 34.760,59.120 34.400,60.000 34.400 C 60.880 34.400,61.600 34.040,61.600 33.600 C 61.600 33.160,62.320 32.800,63.200 32.800 C 64.080 32.800,64.800 32.440,64.800 32.000 C 64.800 31.560,65.520 31.200,66.400 31.200 C 67.280 31.200,68.000 30.840,68.000 30.400 C 68.000 29.960,68.545 29.600,69.211 29.600 C 69.877 29.600,71.137 29.240,72.011 28.800 C 72.885 28.360,74.315 27.640,75.189 27.200 C 76.063 26.760,77.323 26.400,77.989 26.400 C 78.655 26.400,79.200 26.040,79.200 25.600 C 79.200 25.160,80.100 24.800,81.200 24.800 C 82.300 24.800,83.200 24.440,83.200 24.000 C 83.200 23.560,84.100 23.200,85.200 23.200 C 86.300 23.200,87.200 22.840,87.200 22.400 C 87.200 21.960,88.079 21.600,89.153 21.600 C 90.227 21.600,91.328 21.240,91.600 20.800 C 91.872 20.360,92.973 20.000,94.047 20.000 C 95.121 20.000,96.000 19.640,96.000 19.200 C 96.000 18.760,97.080 18.400,98.400 18.400 C 99.720 18.400,100.800 18.040,100.800 17.600 C 100.800 17.160,101.880 16.800,103.200 16.800 C 104.520 16.800,105.600 16.440,105.600 16.000 C 105.600 15.560,106.659 15.200,107.953 15.200 C 109.247 15.200,110.528 14.840,110.800 14.400 C 111.072 13.960,112.533 13.600,114.047 13.600 C 115.561 13.600,116.800 13.240,116.800 12.800 C 116.800 12.360,118.240 12.000,120.000 12.000 C 121.760 12.000,123.200 11.640,123.200 11.200 C 123.200 10.760,124.640 10.400,126.400 10.400 C 128.160 10.400,129.600 10.040,129.600 9.600 C 129.600 9.160,131.199 8.800,133.153 8.800 C 135.107 8.800,136.928 8.440,137.200 8.000 C 137.472 7.560,139.272 7.200,141.200 7.200 C 143.128 7.200,144.928 6.840,145.200 6.400 C 145.472 5.960,147.812 5.600,150.400 5.600 C 152.988 5.600,155.328 5.240,155.600 4.800 C 155.872 4.360,158.932 4.000,162.400 4.000 C 165.868 4.000,168.928 3.640,169.200 3.200 C 169.877 2.105,230.123 2.105,230.800 3.200 M195.144 54.697 C 194.893 54.962,188.953 55.541,181.944 55.984 C 174.935 56.427,166.860 57.124,164.000 57.533 C 161.140 57.942,157.000 58.510,154.800 58.797 C 152.600 59.083,150.080 59.628,149.200 60.009 C 148.320 60.389,146.160 60.917,144.400 61.181 C 142.640 61.445,139.848 61.866,138.195 62.115 C 136.542 62.365,134.991 62.891,134.748 63.285 C 134.505 63.678,133.268 64.000,132.000 64.000 C 130.732 64.000,129.472 64.360,129.200 64.800 C 128.928 65.240,127.668 65.600,126.400 65.600 C 125.132 65.600,123.872 65.960,123.600 66.400 C 123.328 66.840,122.047 67.200,120.753 67.200 C 119.459 67.200,118.400 67.560,118.400 68.000 C 118.400 68.440,117.320 68.800,116.000 68.800 C 114.680 68.800,113.600 69.160,113.600 69.600 C 113.600 70.040,112.875 70.400,111.989 70.400 C 111.103 70.400,109.663 70.760,108.789 71.200 C 107.915 71.640,106.485 72.360,105.611 72.800 C 104.737 73.240,103.297 73.600,102.411 73.600 C 101.525 73.600,100.800 73.960,100.800 74.400 C 100.800 74.840,100.080 75.200,99.200 75.200 C 98.320 75.200,97.600 75.560,97.600 76.000 C 97.600 76.440,96.970 76.798,96.200 76.796 C 94.393 76.790,72.000 88.000,72.000 88.910 C 72.000 89.289,71.280 89.600,70.400 89.600 C 69.520 89.600,68.800 89.960,68.800 90.400 C 68.800 90.840,68.415 91.200,67.944 91.200 C 67.473 91.200,65.519 92.280,63.600 93.600 C 61.681 94.920,59.727 96.000,59.256 96.000 C 58.785 96.000,58.400 96.299,58.400 96.665 C 58.400 97.030,57.410 97.838,56.200 98.459 C 54.990 99.081,53.418 100.222,52.706 100.995 C 51.995 101.768,50.995 102.400,50.485 102.400 C 47.004 102.400,40.692 112.450,43.200 114.000 C 43.640 114.272,44.000 115.490,44.000 116.707 C 44.000 119.068,44.246 119.365,51.533 125.813 C 54.135 128.116,57.453 131.170,58.906 132.600 C 60.358 134.030,61.839 135.200,62.197 135.200 C 62.554 135.200,63.365 135.918,63.997 136.796 C 66.564 140.357,69.803 139.805,77.978 134.415 C 100.134 119.805,127.730 108.245,152.400 103.238 C 155.040 102.702,157.920 102.094,158.800 101.886 C 179.187 97.071,220.813 97.071,241.200 101.886 C 242.080 102.094,244.960 102.702,247.600 103.238 C 272.194 108.229,299.882 119.815,321.881 134.322 C 330.100 139.741,332.483 140.244,335.527 137.200 C 336.627 136.100,337.736 135.200,337.990 135.200 C 338.245 135.200,339.642 134.030,341.094 132.600 C 342.547 131.170,345.865 128.116,348.467 125.813 C 355.754 119.365,356.000 119.068,356.000 116.707 C 356.000 115.490,356.360 114.272,356.800 114.000 C 359.554 112.298,354.524 104.740,348.590 101.665 C 347.386 101.040,346.400 100.230,346.400 99.865 C 346.400 99.499,345.928 99.200,345.351 99.200 C 344.774 99.200,343.604 98.570,342.751 97.800 C 341.898 97.030,340.120 95.860,338.800 95.200 C 337.480 94.540,335.702 93.370,334.849 92.600 C 333.996 91.830,332.826 91.200,332.249 91.200 C 331.672 91.200,331.200 90.840,331.200 90.400 C 331.200 89.960,330.480 89.600,329.600 89.600 C 328.720 89.600,328.000 89.240,328.000 88.800 C 328.000 88.360,327.490 88.000,326.867 88.000 C 326.243 88.000,325.613 87.725,325.467 87.388 C 325.043 86.417,305.352 76.790,303.800 76.795 C 303.030 76.798,302.400 76.440,302.400 76.000 C 302.400 75.560,301.680 75.200,300.800 75.200 C 299.920 75.200,299.200 74.840,299.200 74.400 C 299.200 73.960,298.475 73.600,297.589 73.600 C 296.703 73.600,295.263 73.240,294.389 72.800 C 293.515 72.360,292.085 71.640,291.211 71.200 C 290.337 70.760,288.897 70.400,288.011 70.400 C 287.125 70.400,286.400 70.040,286.400 69.600 C 286.400 69.160,285.320 68.800,284.000 68.800 C 282.680 68.800,281.600 68.440,281.600 68.000 C 281.600 67.560,280.541 67.200,279.247 67.200 C 277.953 67.200,276.672 66.840,276.400 66.400 C 276.128 65.960,274.868 65.600,273.600 65.600 C 272.332 65.600,271.072 65.240,270.800 64.800 C 270.528 64.360,269.268 64.000,268.000 64.000 C 266.732 64.000,265.495 63.678,265.252 63.285 C 265.009 62.891,263.458 62.365,261.805 62.115 C 260.152 61.866,257.360 61.445,255.600 61.181 C 253.840 60.917,251.680 60.389,250.800 60.009 C 249.920 59.628,247.400 59.083,245.200 58.797 C 243.000 58.510,238.860 57.939,236.000 57.527 C 233.140 57.115,226.120 56.454,220.400 56.057 C 214.680 55.660,206.760 55.084,202.800 54.775 C 198.840 54.467,195.395 54.432,195.144 54.697 M220.000 59.256 C 225.500 59.651,232.700 60.333,236.000 60.772 C 243.510 61.770,246.951 62.429,261.000 65.557 C 262.870 65.973,265.480 66.540,266.800 66.817 C 268.120 67.094,269.920 67.607,270.800 67.958 C 271.680 68.309,276.000 69.738,280.400 71.134 C 284.800 72.530,289.210 74.016,290.200 74.436 C 291.190 74.856,292.900 75.560,294.000 76.000 C 298.895 77.958,300.489 78.632,301.789 79.293 C 302.553 79.682,303.723 80.000,304.389 80.000 C 305.055 80.000,305.600 80.360,305.600 80.800 C 305.600 81.240,306.082 81.600,306.672 81.600 C 307.261 81.600,311.131 83.347,315.272 85.483 C 327.516 91.798,329.986 93.168,330.267 93.800 C 330.413 94.130,331.043 94.400,331.667 94.400 C 332.290 94.400,332.800 94.672,332.800 95.005 C 332.800 95.337,333.812 96.058,335.050 96.605 C 336.287 97.153,338.072 98.321,339.016 99.201 C 339.961 100.080,341.209 100.800,341.790 100.800 C 342.371 100.800,343.366 101.520,344.000 102.400 C 344.634 103.280,345.560 104.000,346.058 104.000 C 346.556 104.000,348.093 105.080,349.474 106.400 C 350.855 107.720,352.529 108.800,353.193 108.800 C 356.185 108.800,354.353 112.559,349.400 116.584 C 346.650 118.819,342.600 122.352,340.400 124.435 C 338.200 126.517,335.248 129.101,333.839 130.176 L 331.278 132.130 327.439 129.518 C 325.328 128.081,323.420 126.702,323.200 126.453 C 322.518 125.680,318.073 123.125,316.600 122.657 C 315.830 122.413,315.200 121.895,315.200 121.507 C 315.200 121.118,314.894 120.800,314.520 120.800 C 314.146 120.800,310.573 119.025,306.580 116.855 C 300.269 113.426,295.578 111.221,285.200 106.804 C 283.880 106.242,280.640 104.986,278.000 104.013 C 275.360 103.040,272.480 101.960,271.600 101.613 C 270.720 101.266,268.380 100.544,266.400 100.008 C 264.420 99.472,261.973 98.711,260.962 98.317 C 259.952 97.923,258.263 97.600,257.210 97.600 C 256.156 97.600,255.095 97.278,254.852 96.885 C 254.609 96.491,253.058 95.969,251.405 95.725 C 249.752 95.481,246.420 94.884,244.000 94.399 C 216.169 88.822,183.831 88.822,156.000 94.399 C 153.580 94.884,150.248 95.481,148.595 95.725 C 146.942 95.969,145.391 96.491,145.148 96.885 C 144.905 97.278,143.942 97.600,143.010 97.600 C 142.077 97.600,140.208 97.960,138.857 98.400 C 126.812 102.322,123.839 103.329,120.000 104.783 C 117.580 105.700,114.520 106.860,113.200 107.361 C 110.069 108.549,85.320 120.882,84.800 121.514 C 84.580 121.781,83.590 122.450,82.600 123.000 C 81.610 123.550,79.990 124.450,79.000 125.000 C 78.010 125.550,77.020 126.204,76.800 126.453 C 75.144 128.328,68.443 132.130,68.181 131.343 C 68.008 130.824,67.436 130.400,66.910 130.400 C 66.384 130.400,63.559 128.120,60.632 125.334 C 57.705 122.548,54.191 119.398,52.823 118.334 C 46.426 113.359,45.600 112.485,45.600 110.684 C 45.600 109.538,46.073 108.800,46.807 108.800 C 47.471 108.800,49.145 107.720,50.526 106.400 C 51.907 105.080,53.444 104.000,53.942 104.000 C 54.440 104.000,55.366 103.280,56.000 102.400 C 56.634 101.520,57.629 100.800,58.210 100.800 C 58.791 100.800,60.040 100.080,60.984 99.200 C 61.929 98.320,63.174 97.600,63.751 97.600 C 64.328 97.600,64.800 97.240,64.800 96.800 C 64.800 96.360,65.340 96.000,66.000 96.000 C 66.660 96.000,67.200 95.640,67.200 95.200 C 67.200 94.760,67.740 94.400,68.400 94.400 C 69.060 94.400,69.600 94.040,69.600 93.600 C 69.600 93.160,70.290 92.800,71.133 92.800 C 71.977 92.800,72.787 92.530,72.933 92.200 C 73.405 91.140,85.254 84.989,96.800 79.812 C 100.167 78.302,101.149 77.898,105.800 76.107 C 106.790 75.726,108.500 75.042,109.600 74.588 C 110.700 74.133,112.860 73.329,114.400 72.800 C 115.940 72.271,117.920 71.565,118.800 71.230 C 122.636 69.771,126.237 68.800,127.810 68.800 C 128.742 68.800,129.702 68.482,129.943 68.092 C 130.184 67.703,131.375 67.179,132.590 66.928 C 134.770 66.478,138.761 65.607,146.200 63.958 C 167.526 59.230,195.125 57.472,220.000 59.256 M189.200 117.600 C 188.924 118.047,185.192 118.400,180.753 118.400 C 175.984 118.400,172.800 118.720,172.800 119.200 C 172.800 119.644,170.667 120.000,168.000 120.000 C 165.333 120.000,163.200 120.356,163.200 120.800 C 163.200 121.240,161.400 121.600,159.200 121.600 C 157.000 121.600,155.200 121.960,155.200 122.400 C 155.200 122.840,153.760 123.200,152.000 123.200 C 150.240 123.200,148.800 123.560,148.800 124.000 C 148.800 124.440,147.741 124.800,146.447 124.800 C 145.153 124.800,143.872 125.160,143.600 125.600 C 143.328 126.040,142.068 126.400,140.800 126.400 C 139.532 126.400,138.272 126.760,138.000 127.200 C 137.728 127.640,136.648 128.000,135.600 128.000 C 134.552 128.000,133.472 128.360,133.200 128.800 C 132.928 129.240,132.007 129.600,131.153 129.600 C 130.299 129.600,129.600 129.960,129.600 130.400 C 129.600 130.840,128.520 131.200,127.200 131.200 C 125.880 131.200,124.800 131.560,124.800 132.000 C 124.800 132.440,124.080 132.800,123.200 132.800 C 122.320 132.800,121.600 133.160,121.600 133.600 C 121.600 134.040,120.907 134.400,120.060 134.400 C 118.538 134.400,98.509 144.237,97.647 145.409 C 97.401 145.742,95.918 146.687,94.351 147.508 C 90.419 149.569,88.925 153.042,90.688 156.025 C 91.410 157.247,92.000 158.957,92.000 159.825 C 92.000 162.411,113.763 182.400,116.579 182.400 C 117.374 182.400,119.279 181.696,120.812 180.837 C 124.062 179.014,134.695 173.802,137.600 172.608 C 138.700 172.156,140.500 171.432,141.600 171.000 C 142.700 170.567,144.225 169.895,144.989 169.507 C 145.753 169.118,147.082 168.800,147.942 168.800 C 148.802 168.800,149.728 168.440,150.000 168.000 C 150.272 167.560,151.352 167.200,152.400 167.200 C 153.448 167.200,154.528 166.840,154.800 166.400 C 155.072 165.960,156.332 165.600,157.600 165.600 C 158.868 165.600,160.105 165.278,160.348 164.885 C 160.768 164.205,162.879 163.766,170.600 162.755 C 172.470 162.510,174.720 161.992,175.600 161.605 C 177.716 160.673,189.542 159.796,200.000 159.796 C 210.458 159.796,222.284 160.673,224.400 161.605 C 225.280 161.992,227.440 162.501,229.200 162.736 C 237.245 163.807,239.240 164.218,239.652 164.885 C 239.895 165.278,241.132 165.600,242.400 165.600 C 243.668 165.600,244.928 165.960,245.200 166.400 C 245.472 166.840,246.552 167.200,247.600 167.200 C 248.648 167.200,249.728 167.560,250.000 168.000 C 250.272 168.440,251.198 168.800,252.058 168.800 C 252.918 168.800,254.247 169.118,255.011 169.507 C 255.775 169.895,257.300 170.567,258.400 171.000 C 259.500 171.432,261.300 172.156,262.400 172.608 C 265.305 173.802,275.938 179.014,279.188 180.837 C 280.721 181.696,282.626 182.400,283.421 182.400 C 286.383 182.400,308.000 162.395,308.000 159.654 C 308.000 158.693,308.529 157.207,309.175 156.353 C 311.341 153.489,307.399 146.400,303.640 146.400 C 303.031 146.400,302.413 146.065,302.267 145.656 C 301.879 144.573,281.657 134.400,279.893 134.400 C 279.072 134.400,278.400 134.040,278.400 133.600 C 278.400 133.160,277.680 132.800,276.800 132.800 C 275.920 132.800,275.200 132.440,275.200 132.000 C 275.200 131.560,274.120 131.200,272.800 131.200 C 271.480 131.200,270.400 130.840,270.400 130.400 C 270.400 129.960,269.701 129.600,268.847 129.600 C 267.993 129.600,267.072 129.240,266.800 128.800 C 266.528 128.360,265.448 128.000,264.400 128.000 C 263.352 128.000,262.272 127.640,262.000 127.200 C 261.728 126.760,260.468 126.400,259.200 126.400 C 257.932 126.400,256.672 126.040,256.400 125.600 C 256.128 125.160,254.847 124.800,253.553 124.800 C 252.259 124.800,251.200 124.440,251.200 124.000 C 251.200 123.560,249.760 123.200,248.000 123.200 C 246.240 123.200,244.800 122.840,244.800 122.400 C 244.800 121.960,243.000 121.600,240.800 121.600 C 238.600 121.600,236.800 121.240,236.800 120.800 C 236.800 120.356,234.667 120.000,232.000 120.000 C 229.333 120.000,227.200 119.644,227.200 119.200 C 227.200 118.720,224.016 118.400,219.247 118.400 C 214.808 118.400,211.076 118.047,210.800 117.600 C 210.512 117.134,206.007 116.800,200.000 116.800 C 193.993 116.800,189.488 117.134,189.200 117.600 M210.000 120.800 C 210.279 121.251,214.142 121.600,218.847 121.600 C 223.882 121.600,227.200 121.918,227.200 122.400 C 227.200 122.844,229.333 123.200,232.000 123.200 C 234.667 123.200,236.800 123.556,236.800 124.000 C 236.800 124.440,238.600 124.800,240.800 124.800 C 243.000 124.800,244.800 125.160,244.800 125.600 C 244.800 126.040,246.240 126.400,248.000 126.400 C 249.760 126.400,251.200 126.760,251.200 127.200 C 251.200 127.640,252.280 128.000,253.600 128.000 C 254.920 128.000,256.000 128.360,256.000 128.800 C 256.000 129.240,257.059 129.600,258.353 129.600 C 259.647 129.600,260.928 129.960,261.200 130.400 C 261.472 130.840,262.573 131.200,263.647 131.200 C 264.721 131.200,265.600 131.560,265.600 132.000 C 265.600 132.440,266.680 132.800,268.000 132.800 C 269.320 132.800,270.400 133.095,270.400 133.455 C 270.400 133.816,272.200 134.601,274.400 135.200 C 276.600 135.799,278.400 136.584,278.400 136.945 C 278.400 137.305,278.854 137.600,279.408 137.600 C 281.605 137.600,299.094 146.811,305.476 151.329 C 307.381 152.677,307.355 156.000,305.440 156.000 C 304.971 156.000,304.005 156.640,303.294 157.423 C 302.582 158.206,299.679 160.816,296.843 163.223 C 294.006 165.630,290.586 168.634,289.243 169.898 C 284.129 174.708,283.715 174.808,279.018 172.385 C 276.698 171.188,273.360 169.514,271.600 168.666 C 269.840 167.817,267.016 166.420,265.324 165.562 C 263.633 164.703,261.743 164.000,261.124 164.000 C 260.506 164.000,260.000 163.640,260.000 163.200 C 260.000 162.760,259.121 162.400,258.047 162.400 C 256.973 162.400,255.872 162.040,255.600 161.600 C 255.328 161.160,254.248 160.800,253.200 160.800 C 252.152 160.800,251.072 160.440,250.800 160.000 C 250.528 159.560,249.448 159.200,248.400 159.200 C 247.352 159.200,246.272 158.840,246.000 158.400 C 245.728 157.960,244.468 157.600,243.200 157.600 C 241.932 157.600,240.672 157.240,240.400 156.800 C 240.128 156.360,238.559 156.000,236.913 156.000 C 235.267 156.000,233.578 155.675,233.160 155.278 C 232.393 154.549,230.616 154.267,216.800 152.688 C 202.179 151.016,169.543 152.708,166.840 155.278 C 166.422 155.675,164.733 156.000,163.087 156.000 C 161.441 156.000,159.872 156.360,159.600 156.800 C 159.328 157.240,158.068 157.600,156.800 157.600 C 155.532 157.600,154.272 157.960,154.000 158.400 C 153.728 158.840,152.648 159.200,151.600 159.200 C 150.552 159.200,149.472 159.560,149.200 160.000 C 148.928 160.440,148.002 160.800,147.142 160.800 C 146.282 160.800,144.953 161.118,144.189 161.507 C 143.425 161.895,141.900 162.580,140.800 163.028 C 136.923 164.609,127.581 168.876,126.000 169.788 C 120.472 172.980,116.750 174.451,115.702 173.857 C 114.570 173.215,108.103 167.677,100.834 161.125 C 98.835 159.323,96.210 157.008,95.000 155.980 C 93.790 154.952,92.801 153.726,92.801 153.256 C 92.804 151.481,117.449 137.600,120.597 137.600 C 121.148 137.600,121.600 137.305,121.600 136.945 C 121.600 136.584,123.400 135.799,125.600 135.200 C 127.800 134.601,129.600 133.816,129.600 133.455 C 129.600 133.095,130.680 132.800,132.000 132.800 C 133.320 132.800,134.400 132.440,134.400 132.000 C 134.400 131.560,135.279 131.200,136.353 131.200 C 137.427 131.200,138.528 130.840,138.800 130.400 C 139.072 129.960,140.353 129.600,141.647 129.600 C 142.941 129.600,144.000 129.240,144.000 128.800 C 144.000 128.360,145.080 128.000,146.400 128.000 C 147.720 128.000,148.800 127.640,148.800 127.200 C 148.800 126.760,150.219 126.400,151.953 126.400 C 153.687 126.400,155.328 126.040,155.600 125.600 C 155.872 125.160,157.693 124.800,159.647 124.800 C 161.601 124.800,163.200 124.440,163.200 124.000 C 163.200 123.556,165.333 123.200,168.000 123.200 C 170.667 123.200,172.800 122.844,172.800 122.400 C 172.800 121.915,176.267 121.600,181.600 121.600 C 186.933 121.600,190.400 121.285,190.400 120.800 C 190.400 120.311,194.118 120.000,199.953 120.000 C 205.458 120.000,209.715 120.339,210.000 120.800 M153.600 202.400 C 153.600 203.280,153.240 204.000,152.800 204.000 C 152.287 204.000,152.000 211.571,152.000 225.114 C 152.000 249.221,152.763 247.029,144.000 248.110 C 131.536 249.649,129.600 250.272,129.600 252.743 C 129.600 253.214,129.240 253.600,128.800 253.600 C 128.271 253.600,128.000 290.118,128.000 361.553 C 128.000 432.658,128.273 469.674,128.800 470.000 C 129.240 470.272,129.626 471.283,129.658 472.247 C 129.788 476.140,132.274 478.783,136.060 479.051 C 138.007 479.188,139.942 479.638,140.360 480.051 C 140.778 480.463,142.938 480.811,145.160 480.825 C 152.069 480.869,152.000 480.688,152.000 498.641 C 152.000 508.221,152.311 514.498,152.800 514.800 C 153.240 515.072,153.600 516.489,153.600 517.949 C 153.600 522.353,154.070 522.451,174.100 522.215 L 192.400 522.000 193.659 518.208 C 194.351 516.123,195.161 514.173,195.459 513.875 C 195.756 513.577,196.000 506.733,196.000 498.667 L 196.000 484.000 204.800 484.000 L 213.600 484.000 213.600 500.000 C 213.600 510.133,213.893 516.000,214.400 516.000 C 214.840 516.000,215.200 517.008,215.200 518.240 C 215.200 522.273,215.790 522.400,234.495 522.400 C 254.411 522.400,254.400 522.402,254.400 518.714 C 254.400 517.221,254.760 516.000,255.200 516.000 C 255.711 516.000,256.000 509.109,256.000 496.928 L 256.000 477.857 258.038 476.928 C 259.158 476.418,260.422 476.000,260.846 476.000 C 261.270 476.000,263.144 475.333,265.009 474.518 C 275.038 470.136,276.800 469.280,276.800 468.792 C 276.800 468.498,277.714 467.841,278.830 467.332 C 281.540 466.097,282.531 465.289,288.800 459.200 C 295.466 452.725,298.308 448.537,301.693 440.200 C 302.185 438.990,302.905 437.375,303.293 436.611 C 303.682 435.847,304.000 434.338,304.000 433.258 C 304.000 432.178,304.360 431.072,304.800 430.800 C 305.240 430.528,305.600 429.319,305.600 428.113 C 305.600 426.907,305.930 425.578,306.333 425.160 C 307.764 423.675,309.307 400.987,308.062 399.742 C 307.588 399.268,307.200 396.792,307.200 394.240 C 307.200 391.680,306.841 389.600,306.400 389.600 C 305.960 389.600,305.600 388.541,305.600 387.247 C 305.600 385.953,305.240 384.672,304.800 384.400 C 304.360 384.128,304.000 383.027,304.000 381.953 C 304.000 380.879,303.640 380.000,303.200 380.000 C 302.760 380.000,302.400 379.280,302.400 378.400 C 302.400 377.520,302.040 376.800,301.600 376.800 C 301.160 376.800,300.800 376.159,300.800 375.377 C 300.800 374.594,300.080 373.434,299.200 372.800 C 298.320 372.166,297.600 371.235,297.600 370.731 C 297.600 369.409,289.144 360.800,287.846 360.800 C 287.245 360.800,286.234 360.080,285.600 359.200 C 284.966 358.320,283.806 357.600,283.023 357.600 C 282.241 357.600,281.600 357.240,281.600 356.800 C 281.600 356.360,281.081 356.000,280.447 356.000 C 277.746 356.000,278.483 353.963,282.739 349.662 C 287.125 345.230,292.800 335.658,292.800 332.693 C 292.800 331.924,293.120 331.097,293.512 330.855 C 293.903 330.613,294.428 329.241,294.678 327.807 C 294.929 326.373,295.544 323.220,296.045 320.800 C 297.373 314.393,297.865 303.211,296.904 301.264 C 296.453 300.349,295.901 297.980,295.679 296.000 C 294.957 289.577,294.240 286.400,293.512 286.400 C 293.121 286.400,292.800 285.680,292.800 284.800 C 292.800 283.920,292.440 283.200,292.000 283.200 C 291.560 283.200,291.200 282.480,291.200 281.600 C 291.200 280.720,290.840 280.000,290.400 280.000 C 289.960 280.000,289.600 279.359,289.600 278.577 C 289.600 277.794,288.880 276.634,288.000 276.000 C 287.120 275.366,286.400 274.435,286.400 273.931 C 286.400 272.679,277.977 264.000,276.763 264.000 C 276.227 264.000,275.205 263.368,274.494 262.595 C 273.782 261.822,272.210 260.681,271.000 260.059 C 269.790 259.438,268.800 258.630,268.800 258.265 C 268.800 257.899,268.080 257.600,267.200 257.600 C 266.320 257.600,265.600 257.240,265.600 256.800 C 265.600 256.360,264.880 256.000,264.000 256.000 C 263.120 256.000,262.400 255.640,262.400 255.200 C 262.400 254.760,261.590 254.389,260.600 254.375 C 255.980 254.309,256.000 254.428,256.000 227.655 C 256.000 207.428,255.798 202.884,254.857 201.943 C 253.173 200.259,216.427 200.259,214.743 201.943 C 213.811 202.875,213.600 206.933,213.600 223.943 L 213.600 244.800 204.800 244.800 L 196.000 244.800 196.000 225.323 C 196.000 209.209,195.783 205.410,194.741 203.323 L 193.483 200.800 173.541 200.800 C 154.133 200.800,153.600 200.843,153.600 202.400 M191.694 204.952 C 192.018 205.476,192.190 215.376,192.078 226.952 L 191.872 248.000 204.336 248.000 L 216.800 248.000 216.800 226.000 L 216.800 204.000 234.789 204.000 L 252.778 204.000 252.989 229.800 L 253.200 255.600 255.400 255.853 C 256.610 255.992,257.600 256.442,257.600 256.853 C 257.600 257.264,258.106 257.600,258.724 257.600 C 260.057 257.600,266.683 260.936,267.067 261.800 C 267.213 262.130,268.023 262.400,268.867 262.400 C 269.710 262.400,270.400 262.682,270.400 263.028 C 270.400 263.373,271.534 264.325,272.919 265.143 C 276.254 267.113,284.800 275.836,284.800 277.270 C 284.800 277.891,285.103 278.400,285.474 278.400 C 285.845 278.400,286.964 280.110,287.962 282.200 C 288.959 284.290,290.096 286.625,290.488 287.389 C 290.879 288.153,291.200 289.482,291.200 290.342 C 291.200 291.202,291.560 292.128,292.000 292.400 C 292.440 292.672,292.800 294.652,292.800 296.800 C 292.800 298.948,293.160 300.928,293.600 301.200 C 294.040 301.472,294.400 304.913,294.400 308.847 C 294.400 313.082,294.074 316.000,293.600 316.000 C 293.160 316.000,292.800 317.800,292.800 320.000 C 292.800 322.200,292.440 324.000,292.000 324.000 C 291.560 324.000,291.200 324.879,291.200 325.953 C 291.200 327.027,290.840 328.128,290.400 328.400 C 289.960 328.672,289.600 329.593,289.600 330.447 C 289.600 331.301,289.240 332.000,288.800 332.000 C 288.360 332.000,288.000 332.385,288.000 332.856 C 288.000 336.647,271.847 352.800,268.056 352.800 C 267.585 352.800,267.200 353.160,267.200 353.600 C 267.200 354.040,268.079 354.400,269.153 354.400 C 270.227 354.400,271.328 354.760,271.600 355.200 C 271.872 355.640,272.793 356.000,273.647 356.000 C 274.501 356.000,275.200 356.360,275.200 356.800 C 275.200 357.240,275.920 357.600,276.800 357.600 C 277.680 357.600,278.400 357.960,278.400 358.400 C 278.400 358.840,278.872 359.200,279.449 359.200 C 280.026 359.200,281.271 359.920,282.216 360.800 C 283.160 361.680,284.288 362.400,284.722 362.400 C 285.929 362.400,296.000 372.739,296.000 373.978 C 296.000 374.577,296.270 375.187,296.600 375.333 C 297.550 375.755,300.800 382.082,300.800 383.509 C 300.800 384.219,301.160 384.800,301.600 384.800 C 302.040 384.800,302.400 385.859,302.400 387.153 C 302.400 388.447,302.760 389.728,303.200 390.000 C 303.640 390.272,304.000 392.561,304.000 395.087 C 304.000 397.613,304.390 400.070,304.866 400.546 C 306.058 401.738,304.515 422.925,303.133 424.360 C 302.730 424.778,302.400 425.953,302.400 426.971 C 302.400 427.989,302.079 429.447,301.688 430.211 C 301.296 430.975,300.138 433.400,299.116 435.600 C 291.738 451.472,272.309 466.685,256.106 469.276 L 252.800 469.804 252.800 492.102 L 252.800 514.400 234.800 514.400 L 216.800 514.400 216.800 495.200 L 216.800 476.000 204.414 476.000 L 192.029 476.000 191.814 495.000 L 191.600 514.000 173.400 514.215 L 155.200 514.430 155.200 494.520 L 155.200 474.609 152.200 474.018 C 149.488 473.483,145.727 472.877,136.444 471.478 C 134.708 471.216,132.818 470.532,132.244 469.958 C 130.774 468.488,130.691 255.229,132.160 253.760 C 132.688 253.232,134.488 252.800,136.160 252.800 C 137.832 252.800,139.200 252.470,139.200 252.066 C 139.200 251.662,141.630 251.155,144.600 250.940 C 147.570 250.725,151.170 250.294,152.600 249.983 L 155.200 249.418 155.200 226.709 L 155.200 204.000 173.153 204.000 C 186.174 204.000,191.267 204.262,191.694 204.952 M185.600 283.738 C 183.620 283.880,180.470 284.199,178.600 284.447 L 175.200 284.898 175.200 312.476 L 175.200 340.054 194.600 339.690 C 215.435 339.299,223.952 338.697,225.160 337.533 C 225.578 337.130,227.108 336.800,228.560 336.800 C 230.012 336.800,231.200 336.440,231.200 336.000 C 231.200 335.560,231.907 335.200,232.772 335.200 C 236.377 335.200,247.200 327.439,247.200 324.853 C 247.200 324.384,247.560 324.000,248.000 324.000 C 248.440 324.000,248.800 323.100,248.800 322.000 C 248.800 320.900,249.160 320.000,249.600 320.000 C 250.083 320.000,250.400 316.667,250.400 311.600 C 250.400 306.533,250.083 303.200,249.600 303.200 C 249.160 303.200,248.800 302.655,248.800 301.989 C 248.800 289.694,219.703 281.291,185.600 283.738 M213.600 292.027 C 229.844 293.737,245.600 300.249,245.600 305.254 C 245.600 305.884,245.960 306.400,246.400 306.400 C 248.077 306.400,247.319 318.020,245.400 321.718 C 243.244 325.873,240.531 328.800,238.836 328.800 C 238.156 328.800,237.600 329.160,237.600 329.600 C 237.600 330.040,236.880 330.400,236.000 330.400 C 235.120 330.400,234.400 330.760,234.400 331.200 C 234.400 331.640,233.701 332.000,232.847 332.000 C 231.993 332.000,231.072 332.360,230.800 332.800 C 230.528 333.240,229.088 333.600,227.600 333.600 C 226.112 333.600,224.672 333.960,224.400 334.400 C 224.128 334.840,221.788 335.200,219.200 335.200 C 216.612 335.200,214.272 335.560,214.000 336.000 C 213.695 336.494,206.792 336.800,195.953 336.800 L 178.400 336.800 178.400 314.432 L 178.400 292.065 185.000 291.795 C 199.426 291.206,206.327 291.262,213.600 292.027 M175.200 406.400 L 175.200 438.400 177.153 438.400 C 178.227 438.400,179.328 438.760,179.600 439.200 C 179.907 439.697,187.326 440.000,199.200 440.000 C 211.074 440.000,218.493 439.697,218.800 439.200 C 219.072 438.760,221.613 438.400,224.447 438.400 C 227.349 438.400,229.600 438.051,229.600 437.600 C 229.600 437.160,231.040 436.800,232.800 436.800 C 234.560 436.800,236.000 436.440,236.000 436.000 C 236.000 435.560,236.879 435.200,237.953 435.200 C 239.027 435.200,240.128 434.840,240.400 434.400 C 240.672 433.960,241.593 433.600,242.447 433.600 C 243.301 433.600,244.000 433.264,244.000 432.854 C 244.000 432.444,244.777 431.861,245.726 431.560 C 248.079 430.813,256.224 422.559,257.529 419.600 C 258.111 418.280,258.905 416.575,259.293 415.811 C 260.273 413.884,260.192 397.013,259.200 396.400 C 258.760 396.128,258.400 395.027,258.400 393.953 C 258.400 392.879,258.040 392.000,257.600 392.000 C 257.160 392.000,256.800 391.451,256.800 390.779 C 256.800 388.649,250.179 382.863,245.184 380.629 C 233.995 375.625,224.523 374.433,195.800 374.414 L 175.200 374.400 175.200 406.400 M227.385 383.285 C 230.583 383.771,233.825 384.491,234.589 384.885 C 235.353 385.278,236.613 385.607,237.389 385.615 C 240.529 385.648,251.359 392.371,253.862 395.840 C 256.149 399.010,256.347 399.798,256.372 405.840 C 256.414 415.766,255.064 419.527,249.747 424.289 C 249.324 424.668,248.054 425.838,246.925 426.889 C 245.796 427.940,244.316 428.800,243.636 428.800 C 242.956 428.800,242.400 429.160,242.400 429.600 C 242.400 430.040,241.680 430.400,240.800 430.400 C 239.920 430.400,239.200 430.672,239.200 431.005 C 239.200 431.729,233.476 433.600,231.260 433.600 C 230.399 433.600,229.472 433.960,229.200 434.400 C 228.928 434.840,226.408 435.200,223.600 435.200 C 220.792 435.200,218.272 435.560,218.000 436.000 C 217.197 437.299,181.538 437.006,179.800 435.686 C 178.517 434.712,178.400 432.442,178.400 408.512 L 178.400 382.400 199.985 382.400 C 211.857 382.400,224.187 382.798,227.385 383.285 " stroke="none" fill="#000000" fill-rule="evenodd"></path><path id="path1" d="M194.600 33.393 C 197.570 33.547,202.430 33.547,205.400 33.393 C 208.370 33.239,205.940 33.113,200.000 33.113 C 194.060 33.113,191.630 33.239,194.600 33.393 M169.200 34.437 C 168.085 34.943,168.570 35.015,170.800 34.675 C 172.560 34.407,174.150 34.056,174.333 33.894 C 175.021 33.288,170.736 33.742,169.200 34.437 M225.667 33.894 C 225.850 34.056,227.440 34.407,229.200 34.675 C 231.430 35.015,231.915 34.943,230.800 34.437 C 229.264 33.742,224.979 33.288,225.667 33.894 M156.800 36.037 C 155.924 36.630,156.247 36.704,158.000 36.312 C 160.942 35.654,161.580 35.196,159.533 35.212 C 158.690 35.219,157.460 35.590,156.800 36.037 M173.000 59.773 C 174.210 59.956,176.190 59.956,177.400 59.773 C 178.610 59.590,177.620 59.440,175.200 59.440 C 172.780 59.440,171.790 59.590,173.000 59.773 M222.600 59.773 C 223.810 59.956,225.790 59.956,227.000 59.773 C 228.210 59.590,227.220 59.440,224.800 59.440 C 222.380 59.440,221.390 59.590,222.600 59.773 M160.200 61.351 C 160.970 61.553,162.230 61.553,163.000 61.351 C 163.770 61.150,163.140 60.986,161.600 60.986 C 160.060 60.986,159.430 61.150,160.200 61.351 M12.068 82.200 C 12.105 82.530,13.635 84.043,15.468 85.563 L 18.800 88.326 15.638 84.963 C 12.385 81.504,11.951 81.168,12.068 82.200 M381.600 87.383 C 379.180 89.594,378.123 90.727,379.250 89.901 C 382.907 87.224,386.608 83.941,386.300 83.649 C 386.135 83.493,384.020 85.173,381.600 87.383 M368.800 89.091 C 368.800 89.311,369.880 90.260,371.200 91.200 C 372.520 92.140,373.600 92.729,373.600 92.509 C 373.600 92.289,372.520 91.340,371.200 90.400 C 369.880 89.460,368.800 88.871,368.800 89.091 M180.211 90.974 C 181.427 91.158,183.227 91.153,184.211 90.963 C 185.195 90.773,184.200 90.623,182.000 90.629 C 179.800 90.635,178.995 90.790,180.211 90.974 M216.200 90.973 C 217.410 91.156,219.390 91.156,220.600 90.973 C 221.810 90.790,220.820 90.640,218.400 90.640 C 215.980 90.640,214.990 90.790,216.200 90.973 M167.200 92.000 C 164.432 92.583,164.427 92.590,166.800 92.682 C 168.120 92.734,169.740 92.427,170.400 92.000 C 171.732 91.139,171.290 91.139,167.200 92.000 M229.600 92.010 C 230.260 92.431,231.850 92.781,233.133 92.788 C 236.228 92.804,235.555 92.342,231.600 91.736 C 229.421 91.402,228.783 91.489,229.600 92.010 M240.000 93.563 C 240.660 94.010,241.890 94.381,242.733 94.388 C 244.780 94.404,244.142 93.946,241.200 93.288 C 239.447 92.896,239.124 92.970,240.000 93.563 M248.000 95.163 C 248.660 95.610,249.890 95.981,250.733 95.988 C 252.780 96.004,252.142 95.546,249.200 94.888 C 247.447 94.496,247.124 94.570,248.000 95.163 M260.800 98.363 C 261.460 98.810,262.690 99.181,263.533 99.188 C 265.580 99.204,264.942 98.746,262.000 98.088 C 260.247 97.696,259.924 97.770,260.800 98.363 M279.092 104.431 C 280.572 105.074,282.192 105.586,282.692 105.569 C 283.191 105.551,282.389 105.011,280.908 104.369 C 279.428 103.726,277.808 103.214,277.308 103.231 C 276.809 103.249,277.611 103.789,279.092 104.431 M284.000 105.979 C 284.000 106.612,289.800 108.867,290.256 108.411 C 290.482 108.185,290.471 108.000,290.231 108.000 C 289.991 108.000,288.491 107.455,286.898 106.789 C 285.304 106.123,284.000 105.759,284.000 105.979 M61.644 126.139 C 61.669 126.503,62.749 127.637,64.044 128.661 C 65.340 129.684,66.380 130.224,66.356 129.861 C 66.331 129.497,65.251 128.363,63.956 127.339 C 62.660 126.316,61.620 125.776,61.644 126.139 M335.542 128.205 L 333.200 130.794 335.600 128.797 C 336.920 127.699,338.150 126.710,338.333 126.600 C 338.517 126.490,338.490 126.224,338.275 126.008 C 338.060 125.793,336.830 126.782,335.542 128.205 M186.400 152.000 C 184.440 152.628,184.448 152.642,186.800 152.708 C 188.120 152.745,189.740 152.427,190.400 152.000 C 191.916 151.020,189.459 151.020,186.400 152.000 M210.000 152.000 C 210.880 152.378,212.680 152.670,214.000 152.649 L 216.400 152.611 214.000 152.000 C 212.680 151.664,210.880 151.372,210.000 151.351 L 208.400 151.312 210.000 152.000 M100.400 160.800 C 102.119 162.560,103.705 164.000,103.925 164.000 C 104.145 164.000,102.919 162.560,101.200 160.800 C 99.481 159.040,97.895 157.600,97.675 157.600 C 97.455 157.600,98.681 159.040,100.400 160.800 M297.950 161.800 L 295.600 164.400 298.200 162.050 C 300.624 159.860,301.168 159.200,300.550 159.200 C 300.412 159.200,299.242 160.370,297.950 161.800 M110.467 169.800 C 110.650 169.910,111.880 170.900,113.200 172.000 L 115.600 174.000 113.661 171.800 C 112.594 170.590,111.364 169.600,110.927 169.600 C 110.491 169.600,110.283 169.690,110.467 169.800 M191.411 226.508 L 191.485 248.400 191.959 227.200 C 192.219 215.540,192.185 205.689,191.884 205.308 C 191.583 204.928,191.370 214.468,191.411 226.508 M132.160 253.760 C 130.520 255.400,130.794 468.509,132.438 470.152 C 133.119 470.833,133.848 471.219,134.057 471.009 C 134.267 470.800,133.890 470.173,133.219 469.616 C 131.592 468.266,131.336 255.384,132.960 253.760 C 133.488 253.232,133.740 252.800,133.520 252.800 C 133.300 252.800,132.688 253.232,132.160 253.760 M196.200 282.988 C 198.290 283.153,201.710 283.153,203.800 282.988 C 205.890 282.823,204.180 282.688,200.000 282.688 C 195.820 282.688,194.110 282.823,196.200 282.988 M183.800 283.765 C 184.790 283.955,186.410 283.955,187.400 283.765 C 188.390 283.574,187.580 283.418,185.600 283.418 C 183.620 283.418,182.810 283.574,183.800 283.765 M174.544 288.200 L 174.688 292.400 174.986 288.650 C 175.232 285.544,175.585 284.842,177.042 284.559 C 178.498 284.276,178.423 284.199,176.600 284.109 C 174.449 284.002,174.403 284.093,174.544 288.200 M218.209 284.566 C 219.204 284.757,220.644 284.750,221.409 284.550 C 222.174 284.349,221.360 284.193,219.600 284.202 C 217.840 284.211,217.214 284.374,218.209 284.566 M214.400 339.237 C 213.524 339.830,213.847 339.904,215.600 339.512 C 218.542 338.854,219.180 338.396,217.133 338.412 C 216.290 338.419,215.060 338.790,214.400 339.237 M276.389 346.418 C 276.111 346.868,274.024 348.488,271.752 350.018 C 269.480 351.548,267.921 352.800,268.287 352.800 C 269.035 352.800,272.850 350.240,276.261 347.450 C 277.505 346.432,278.156 345.600,277.709 345.600 C 277.261 345.600,276.667 345.968,276.389 346.418 M174.722 374.716 C 174.486 375.330,174.437 377.220,174.612 378.916 C 174.916 381.857,174.937 381.825,175.066 378.215 L 175.200 374.431 193.000 374.199 L 210.800 373.968 192.975 373.784 C 178.342 373.633,175.073 373.800,174.722 374.716 M221.000 374.973 C 222.210 375.156,224.190 375.156,225.400 374.973 C 226.610 374.790,225.620 374.640,223.200 374.640 C 220.780 374.640,219.790 374.790,221.000 374.973 M232.000 376.309 C 232.000 376.479,233.061 376.774,234.358 376.964 C 235.655 377.155,236.533 377.016,236.311 376.655 C 235.914 376.014,232.000 375.700,232.000 376.309 M304.400 407.205 C 304.400 411.081,304.664 413.836,304.988 413.326 C 305.762 412.106,305.773 401.001,305.000 400.526 C 304.670 400.323,304.400 403.328,304.400 407.205 M287.177 451.800 L 282.000 457.200 287.400 452.023 C 292.416 447.215,293.166 446.400,292.577 446.400 C 292.454 446.400,290.024 448.830,287.177 451.800 M150.000 473.600 C 150.880 473.978,152.140 474.288,152.800 474.288 C 153.556 474.288,153.409 474.033,152.400 473.600 C 151.520 473.222,150.260 472.912,149.600 472.912 C 148.844 472.912,148.991 473.167,150.000 473.600 M191.545 494.800 C 191.546 505.360,191.659 509.569,191.798 504.154 C 191.937 498.739,191.936 490.099,191.797 484.954 C 191.658 479.809,191.544 484.240,191.545 494.800 " stroke="none" fill="#3f3f3f" fill-rule="evenodd"></path><path id="path2" d="M170.416 3.173 C 169.646 3.660,170.907 3.757,174.016 3.451 C 176.647 3.191,178.950 2.849,179.133 2.690 C 179.901 2.022,171.498 2.489,170.416 3.173 M221.200 2.800 C 223.122 3.457,230.450 3.724,229.468 3.101 C 228.880 2.729,226.600 2.447,224.400 2.475 C 222.200 2.503,220.760 2.649,221.200 2.800 M156.800 4.790 C 155.983 5.311,156.621 5.398,158.800 5.064 C 162.755 4.458,163.428 3.996,160.333 4.012 C 159.050 4.019,157.460 4.369,156.800 4.790 M238.467 4.285 C 238.650 4.442,240.060 4.801,241.600 5.084 C 243.570 5.445,244.044 5.365,243.200 4.811 C 242.115 4.100,237.673 3.607,238.467 4.285 M146.400 6.437 C 145.524 7.030,145.847 7.104,147.600 6.712 C 150.542 6.054,151.180 5.596,149.133 5.612 C 148.290 5.619,147.060 5.990,146.400 6.437 M249.667 5.887 C 249.850 6.046,251.080 6.416,252.400 6.712 C 254.153 7.104,254.476 7.030,253.600 6.437 C 252.520 5.706,248.864 5.195,249.667 5.887 M130.000 9.600 C 129.415 10.546,130.198 10.546,132.400 9.600 C 133.943 8.937,133.937 8.910,132.247 8.856 C 131.283 8.825,130.272 9.160,130.000 9.600 M182.800 32.734 C 180.160 32.991,187.900 33.200,200.000 33.200 C 212.100 33.200,219.660 32.972,216.800 32.694 C 210.433 32.073,189.355 32.099,182.800 32.734 M164.800 34.400 L 162.000 34.989 164.800 35.038 C 166.340 35.065,168.320 34.778,169.200 34.400 L 170.800 33.712 169.200 33.762 C 168.320 33.789,166.340 34.076,164.800 34.400 M230.800 34.359 C 232.321 35.052,238.235 35.529,237.533 34.903 C 237.350 34.739,235.400 34.386,233.200 34.118 C 230.507 33.790,229.723 33.869,230.800 34.359 M153.600 36.000 L 151.600 36.641 153.600 36.708 C 154.700 36.745,156.140 36.427,156.800 36.000 C 158.328 35.013,156.683 35.013,153.600 36.000 M243.200 36.000 C 243.860 36.427,245.300 36.745,246.400 36.708 L 248.400 36.641 246.400 36.000 C 243.317 35.013,241.672 35.013,243.200 36.000 M145.200 37.600 C 143.657 38.263,143.663 38.290,145.353 38.344 C 146.317 38.375,147.328 38.040,147.600 37.600 C 148.185 36.654,147.402 36.654,145.200 37.600 M252.400 37.600 C 252.672 38.040,253.683 38.375,254.647 38.344 C 256.337 38.290,256.343 38.263,254.800 37.600 C 252.598 36.654,251.815 36.654,252.400 37.600 M137.200 39.200 C 135.657 39.863,135.663 39.890,137.353 39.944 C 138.317 39.975,139.328 39.640,139.600 39.200 C 140.185 38.254,139.402 38.254,137.200 39.200 M260.400 39.200 C 260.672 39.640,261.683 39.975,262.647 39.944 C 264.337 39.890,264.343 39.863,262.800 39.200 C 260.598 38.254,259.815 38.254,260.400 39.200 M25.000 54.576 C 24.010 55.054,23.200 55.758,23.200 56.141 C 23.200 56.524,24.100 56.247,25.200 55.526 C 28.134 53.604,28.031 53.115,25.000 54.576 M190.467 58.689 C 190.650 58.848,197.640 59.154,206.000 59.368 C 214.360 59.582,218.500 59.499,215.200 59.183 C 208.858 58.576,189.900 58.198,190.467 58.689 M181.382 59.777 C 182.802 59.954,185.322 59.957,186.982 59.784 C 188.642 59.611,187.480 59.466,184.400 59.463 C 181.320 59.459,179.962 59.601,181.382 59.777 M166.800 60.800 L 163.600 61.373 166.400 61.430 C 167.940 61.462,169.920 61.178,170.800 60.800 C 172.685 59.990,171.324 59.990,166.800 60.800 M229.200 60.808 C 230.733 61.459,237.422 61.907,236.733 61.312 C 236.550 61.154,234.420 60.823,232.000 60.576 C 229.262 60.297,228.204 60.385,229.200 60.808 M156.400 62.400 C 154.186 62.963,154.155 63.017,156.000 63.093 C 157.100 63.138,158.540 62.827,159.200 62.400 C 160.562 61.520,159.858 61.520,156.400 62.400 M240.800 62.410 C 241.460 62.831,243.050 63.181,244.333 63.188 C 247.428 63.204,246.755 62.742,242.800 62.136 C 240.621 61.802,239.983 61.889,240.800 62.410 M147.600 64.000 C 145.386 64.563,145.355 64.617,147.200 64.693 C 148.300 64.738,149.740 64.427,150.400 64.000 C 151.762 63.120,151.058 63.120,147.600 64.000 M249.600 63.989 C 250.260 64.422,251.670 64.781,252.733 64.788 C 255.301 64.804,254.650 64.349,251.200 63.716 C 249.230 63.355,248.756 63.435,249.600 63.989 M389.200 65.342 C 389.640 65.748,391.800 67.442,394.000 69.106 L 398.000 72.133 394.800 69.197 C 393.040 67.582,390.880 65.888,390.000 65.432 C 389.120 64.977,388.760 64.936,389.200 65.342 M63.800 66.858 C 60.809 68.480,60.991 69.156,64.000 67.600 C 65.320 66.917,66.400 66.188,66.400 65.979 C 66.400 65.465,66.314 65.494,63.800 66.858 M5.133 69.258 L 2.000 72.116 5.400 69.524 C 8.507 67.156,9.265 66.400,8.533 66.400 C 8.387 66.400,6.857 67.686,5.133 69.258 M127.359 68.789 C 125.907 69.133,124.493 69.640,124.218 69.916 C 123.448 70.685,129.095 69.484,129.960 68.694 C 130.378 68.312,130.558 68.037,130.360 68.082 C 130.162 68.127,128.812 68.445,127.359 68.789 M271.267 69.087 C 271.450 69.246,272.680 69.616,274.000 69.912 C 275.753 70.304,276.076 70.230,275.200 69.637 C 274.120 68.906,270.464 68.395,271.267 69.087 M50.517 74.770 C 45.223 78.144,44.119 79.247,48.400 76.885 C 51.632 75.103,55.938 72.033,55.200 72.038 C 54.980 72.040,52.873 73.269,50.517 74.770 M346.400 73.529 C 347.500 74.428,348.760 75.167,349.200 75.170 C 350.056 75.176,348.609 74.068,346.000 72.720 C 344.937 72.170,345.072 72.442,346.400 73.529 M353.200 77.967 C 354.960 79.034,357.030 80.301,357.800 80.782 C 358.570 81.263,359.200 81.498,359.200 81.304 C 359.200 80.707,351.781 75.999,350.863 76.013 C 350.388 76.020,351.440 76.899,353.200 77.967 M9.374 79.217 C 10.790 80.703,12.084 81.756,12.250 81.559 C 12.416 81.362,11.257 80.146,9.676 78.858 L 6.800 76.516 9.374 79.217 M383.720 84.592 C 375.645 91.749,374.920 92.210,373.320 91.214 C 371.754 90.239,371.698 90.262,372.698 91.471 C 373.302 92.202,374.141 92.800,374.563 92.800 C 375.342 92.800,391.552 78.973,392.420 77.567 C 393.274 76.185,392.499 76.811,383.720 84.592 M361.200 82.995 C 363.558 85.269,371.623 90.932,370.948 89.839 C 370.629 89.323,367.945 87.225,364.984 85.177 C 362.023 83.128,360.320 82.146,361.200 82.995 M19.154 87.779 C 22.039 90.517,24.671 92.767,25.002 92.779 C 25.334 92.790,24.074 91.468,22.202 89.841 C 15.063 83.631,14.093 82.975,19.154 87.779 M35.150 85.044 C 30.841 88.061,25.458 92.439,27.245 91.473 C 29.183 90.426,39.200 83.100,39.200 82.730 C 39.200 82.226,39.059 82.306,35.150 85.044 M193.400 89.395 C 197.030 89.543,202.970 89.543,206.600 89.395 C 210.230 89.247,207.260 89.126,200.000 89.126 C 192.740 89.126,189.770 89.247,193.400 89.395 M181.011 90.174 C 182.227 90.358,184.027 90.353,185.011 90.163 C 185.995 89.973,185.000 89.823,182.800 89.829 C 180.600 89.835,179.795 89.990,181.011 90.174 M215.411 90.174 C 216.627 90.358,218.427 90.353,219.411 90.163 C 220.395 89.973,219.400 89.823,217.200 89.829 C 215.000 89.835,214.195 89.990,215.411 90.174 M172.200 90.973 C 173.410 91.156,175.390 91.156,176.600 90.973 C 177.810 90.790,176.820 90.640,174.400 90.640 C 171.980 90.640,170.990 90.790,172.200 90.973 M222.467 90.688 C 222.650 90.847,225.320 91.168,228.400 91.402 C 231.655 91.650,233.162 91.562,232.000 91.194 C 230.022 90.566,221.823 90.132,222.467 90.688 M158.400 92.839 C 157.051 93.298,157.702 93.369,160.400 93.057 C 162.600 92.803,164.550 92.461,164.733 92.297 C 165.363 91.735,160.399 92.160,158.400 92.839 M236.200 92.551 C 236.970 92.753,238.230 92.753,239.000 92.551 C 239.770 92.350,239.140 92.186,237.600 92.186 C 236.060 92.186,235.430 92.350,236.200 92.551 M68.800 94.466 L 66.800 96.096 69.400 94.828 C 70.830 94.130,72.000 93.388,72.000 93.179 C 72.000 92.384,70.726 92.896,68.800 94.466 M150.800 94.437 C 149.685 94.943,150.170 95.015,152.400 94.675 C 154.160 94.407,155.750 94.056,155.933 93.894 C 156.621 93.288,152.336 93.742,150.800 94.437 M144.000 96.011 C 143.156 96.565,143.630 96.645,145.600 96.284 C 149.050 95.651,149.701 95.196,147.133 95.212 C 146.070 95.219,144.660 95.578,144.000 96.011 M252.067 95.487 C 252.250 95.646,253.480 96.016,254.800 96.312 C 256.553 96.704,256.876 96.630,256.000 96.037 C 254.920 95.306,251.264 94.795,252.067 95.487 M257.667 97.085 C 257.850 97.242,259.260 97.601,260.800 97.884 C 262.770 98.245,263.244 98.165,262.400 97.611 C 261.315 96.900,256.873 96.407,257.667 97.085 M46.133 109.333 C 45.840 109.627,45.623 110.617,45.651 111.533 C 45.697 113.066,45.763 113.046,46.468 111.284 C 47.251 109.325,47.089 108.378,46.133 109.333 M352.856 109.353 C 353.037 111.429,354.288 113.191,354.344 111.447 C 354.375 110.483,354.040 109.472,353.600 109.200 C 353.160 108.928,352.825 108.997,352.856 109.353 M47.200 113.051 C 47.200 113.248,48.522 114.418,50.137 115.650 C 51.752 116.882,52.821 117.482,52.513 116.982 C 51.880 115.958,47.200 112.495,47.200 113.051 M349.570 115.258 L 346.800 117.715 349.800 115.563 C 352.451 113.660,353.314 112.800,352.570 112.800 C 352.443 112.800,351.093 113.906,349.570 115.258 M55.200 119.557 C 55.200 120.032,57.558 122.212,63.000 126.766 C 67.716 130.713,65.705 128.287,60.400 123.630 C 57.540 121.119,55.200 119.286,55.200 119.557 M84.600 120.458 C 83.390 121.114,82.400 121.820,82.400 122.026 C 82.400 122.798,83.664 122.314,85.600 120.800 C 87.977 118.940,87.621 118.818,84.600 120.458 M192.186 120.668 C 191.628 121.022,195.144 121.312,200.000 121.312 C 204.856 121.312,208.372 121.022,207.814 120.668 C 207.256 120.314,203.740 120.025,200.000 120.025 C 196.260 120.025,192.744 120.314,192.186 120.668 M340.924 122.480 C 339.452 123.819,338.373 125.040,338.526 125.193 C 338.680 125.347,340.149 124.241,341.791 122.736 C 343.433 121.231,344.512 120.011,344.188 120.023 C 343.865 120.036,342.396 121.142,340.924 122.480 M334.750 128.200 L 332.400 130.800 335.000 128.450 C 337.424 126.260,337.968 125.600,337.350 125.600 C 337.212 125.600,336.042 126.770,334.750 128.200 M196.582 150.977 C 198.002 151.154,200.522 151.157,202.182 150.984 C 203.842 150.811,202.680 150.666,199.600 150.663 C 196.520 150.659,195.162 150.801,196.582 150.977 M304.400 151.612 C 305.280 152.328,305.901 153.274,305.780 153.716 C 305.659 154.158,305.935 154.287,306.393 154.004 C 307.475 153.336,306.756 152.224,304.555 151.160 C 302.829 150.326,302.827 150.334,304.400 151.612 M180.000 152.000 L 176.400 152.560 180.400 152.600 C 182.600 152.622,185.300 152.352,186.400 152.000 C 189.051 151.151,185.460 151.151,180.000 152.000 M214.000 151.958 C 216.432 152.619,223.746 153.053,223.133 152.499 C 222.950 152.333,220.280 151.996,217.200 151.751 C 213.668 151.469,212.486 151.546,214.000 151.958 M169.600 153.600 C 166.866 154.175,166.856 154.191,169.200 154.238 C 170.520 154.265,172.320 153.978,173.200 153.600 C 175.124 152.773,173.527 152.773,169.600 153.600 M226.800 153.579 C 228.328 154.256,233.428 154.713,232.733 154.111 C 232.550 153.953,230.780 153.608,228.800 153.347 C 226.396 153.029,225.732 153.106,226.800 153.579 M162.000 155.200 C 159.786 155.763,159.755 155.817,161.600 155.893 C 162.700 155.938,164.140 155.627,164.800 155.200 C 166.162 154.320,165.458 154.320,162.000 155.200 M235.200 155.189 C 235.860 155.622,237.270 155.981,238.333 155.988 C 240.901 156.004,240.250 155.549,236.800 154.916 C 234.830 154.555,234.356 154.635,235.200 155.189 M156.000 156.800 C 154.352 157.328,154.282 157.452,155.600 157.508 C 156.480 157.545,157.740 157.227,158.400 156.800 C 159.802 155.894,158.829 155.894,156.000 156.800 M241.600 156.763 C 242.260 157.210,243.490 157.581,244.333 157.588 C 246.380 157.604,245.742 157.146,242.800 156.488 C 241.047 156.096,240.724 156.170,241.600 156.763 M104.399 163.439 C 107.919 166.755,110.949 169.318,111.133 169.134 C 111.316 168.950,111.317 168.694,111.133 168.564 C 110.950 168.434,107.920 165.871,104.400 162.868 L 98.000 157.410 104.399 163.439 M246.400 157.893 C 246.400 158.266,253.979 160.816,254.950 160.769 C 255.893 160.723,251.184 158.756,248.600 158.115 C 247.390 157.815,246.400 157.715,246.400 157.893 M294.800 163.414 C 291.720 166.155,288.120 169.386,286.800 170.595 C 283.788 173.353,282.604 173.347,277.835 170.551 C 273.229 167.851,270.927 166.912,271.606 168.009 C 271.874 168.444,272.417 168.800,272.812 168.800 C 273.207 168.800,275.361 169.880,277.600 171.200 C 283.244 174.528,283.356 174.490,293.016 165.985 C 297.755 161.813,301.355 158.407,301.016 158.415 C 300.677 158.424,297.880 160.673,294.800 163.414 M139.600 162.281 C 137.840 163.047,134.855 164.332,132.967 165.137 C 131.079 165.942,129.685 166.751,129.869 166.936 C 130.054 167.120,132.598 166.175,135.522 164.836 C 138.447 163.496,141.350 162.400,141.973 162.400 C 142.596 162.400,143.328 162.040,143.600 161.600 C 144.283 160.495,143.334 160.657,139.600 162.281 M256.000 161.034 C 256.614 161.697,264.800 164.828,264.800 164.399 C 264.800 163.989,260.626 162.149,257.530 161.196 C 256.469 160.869,255.780 160.796,256.000 161.034 M124.394 169.292 C 122.197 170.443,120.058 171.703,119.640 172.092 C 118.316 173.325,115.773 172.861,113.652 171.000 L 111.600 169.200 113.539 171.400 C 116.003 174.194,117.374 174.163,122.400 171.200 C 124.639 169.880,126.793 168.800,127.188 168.800 C 127.583 168.800,128.128 168.440,128.400 168.000 C 129.096 166.874,128.871 166.947,124.394 169.292 M155.562 205.011 C 155.349 205.567,155.270 216.097,155.388 228.411 L 155.602 250.800 156.001 227.400 C 156.220 214.529,156.299 203.999,156.175 204.000 C 156.051 204.000,155.775 204.455,155.562 205.011 M217.149 228.000 C 217.149 239.660,217.261 244.430,217.398 238.600 C 217.535 232.770,217.535 223.230,217.398 217.400 C 217.261 211.570,217.149 216.340,217.149 228.000 M197.438 248.596 C 201.089 248.744,206.849 248.744,210.238 248.594 C 213.627 248.444,210.640 248.323,203.600 248.324 C 196.560 248.325,193.787 248.447,197.438 248.596 M143.000 251.765 C 143.990 251.955,145.610 251.955,146.600 251.765 C 147.590 251.574,146.780 251.418,144.800 251.418 C 142.820 251.418,142.010 251.574,143.000 251.765 M132.960 253.760 C 132.223 254.497,132.000 279.546,132.000 361.636 C 132.000 480.085,131.609 471.277,136.863 471.155 C 138.472 471.117,138.325 470.948,136.000 470.155 L 133.200 469.200 133.200 361.608 L 133.200 254.016 135.600 253.503 C 137.828 253.026,137.854 252.983,135.960 252.895 C 134.838 252.843,133.488 253.232,132.960 253.760 M269.153 263.625 C 270.007 264.271,271.066 264.800,271.506 264.800 C 271.946 264.800,271.607 264.271,270.753 263.625 C 269.899 262.979,268.840 262.451,268.400 262.451 C 267.960 262.451,268.299 262.979,269.153 263.625 M278.400 270.785 C 280.380 272.977,282.090 274.927,282.200 275.118 C 282.310 275.310,282.572 275.295,282.782 275.085 C 282.991 274.875,281.282 272.925,278.982 270.752 L 274.801 266.800 278.400 270.785 M178.000 283.233 C 176.213 283.572,178.687 283.652,183.600 283.416 C 188.440 283.183,192.550 282.859,192.733 282.696 C 193.326 282.170,181.301 282.608,178.000 283.233 M210.800 283.237 C 213.000 283.579,216.060 283.850,217.600 283.838 L 220.400 283.816 217.200 283.154 C 215.440 282.790,212.380 282.520,210.400 282.553 L 206.800 282.614 210.800 283.237 M173.912 312.000 L 174.000 340.400 192.800 340.423 L 211.600 340.447 193.400 340.208 L 175.200 339.970 175.113 316.585 C 175.065 303.723,174.756 291.040,174.426 288.400 C 174.089 285.709,173.863 296.080,173.912 312.000 M223.200 284.800 C 223.860 285.227,225.120 285.556,226.000 285.532 L 227.600 285.488 226.000 284.800 C 223.608 283.772,221.610 283.772,223.200 284.800 M229.600 286.400 C 230.260 286.827,231.340 287.175,232.000 287.175 C 233.067 287.175,233.067 287.089,232.000 286.400 C 231.340 285.973,230.260 285.625,229.600 285.625 C 228.533 285.625,228.533 285.711,229.600 286.400 M240.802 290.946 C 240.804 291.305,241.866 292.311,243.164 293.181 C 244.461 294.050,245.961 295.580,246.497 296.581 C 247.032 297.581,247.794 298.400,248.190 298.400 C 249.339 298.400,245.762 293.824,243.168 291.977 C 241.866 291.050,240.801 290.586,240.802 290.946 M292.936 308.400 C 292.921 313.104,293.151 315.045,293.600 314.000 C 294.455 312.010,294.455 305.870,293.600 303.200 C 293.176 301.876,292.952 303.633,292.936 308.400 M250.568 310.000 C 250.566 315.619,250.660 316.043,251.345 313.475 C 251.849 311.581,251.850 309.324,251.348 307.075 C 250.621 303.821,250.571 304.007,250.568 310.000 M292.123 318.000 C 291.650 325.769,283.849 339.665,276.854 345.200 C 274.037 347.429,270.545 350.762,272.000 349.834 C 280.206 344.598,291.200 330.308,291.200 324.879 C 291.200 324.131,291.585 323.135,292.055 322.665 C 292.525 322.195,292.765 320.413,292.589 318.705 C 292.326 316.153,292.243 316.027,292.123 318.000 M242.092 331.051 C 241.233 332.441,231.155 336.770,228.562 336.863 C 227.527 336.900,227.251 337.106,227.893 337.361 C 229.837 338.134,237.744 335.022,242.778 331.503 C 243.646 330.896,243.937 330.400,243.425 330.400 C 242.913 330.400,242.313 330.693,242.092 331.051 M219.809 338.966 C 220.804 339.157,222.244 339.150,223.009 338.950 C 223.774 338.749,222.960 338.593,221.200 338.602 C 219.440 338.611,218.814 338.774,219.809 338.966 M267.200 351.975 C 264.922 353.727,265.496 354.732,269.200 355.475 C 271.548 355.947,271.556 355.937,269.600 355.022 C 266.659 353.645,266.653 353.622,268.812 351.963 C 269.905 351.123,270.440 350.436,270.000 350.436 C 269.560 350.436,268.300 351.128,267.200 351.975 M289.600 367.585 C 291.580 369.777,293.290 371.727,293.400 371.918 C 293.510 372.110,293.772 372.095,293.982 371.885 C 294.191 371.675,292.482 369.725,290.182 367.552 L 286.001 363.600 289.600 367.585 M173.600 405.907 L 173.600 439.013 175.400 439.496 C 176.390 439.761,177.740 439.947,178.400 439.909 C 179.060 439.871,178.700 439.591,177.600 439.285 L 175.600 438.730 175.167 406.765 C 174.930 389.184,174.895 374.474,175.091 374.076 C 175.298 373.655,185.683 373.517,199.924 373.747 C 213.386 373.964,222.600 373.871,220.400 373.541 C 218.200 373.210,206.770 372.909,195.000 372.870 L 173.600 372.800 173.600 405.907 M228.400 375.200 C 229.280 375.578,230.900 375.888,232.000 375.888 C 233.823 375.888,233.858 375.827,232.400 375.200 C 231.520 374.822,229.900 374.512,228.800 374.512 C 226.977 374.512,226.942 374.573,228.400 375.200 M236.400 376.800 C 236.672 377.240,237.683 377.575,238.647 377.544 C 240.337 377.490,240.343 377.463,238.800 376.800 C 236.598 375.854,235.815 375.854,236.400 376.800 M249.200 382.058 C 252.211 384.329,254.012 386.053,256.270 388.826 C 257.712 390.596,258.186 390.910,257.580 389.694 C 256.305 387.134,249.899 380.794,248.621 380.825 C 248.034 380.840,248.281 381.364,249.200 382.058 M300.856 385.353 C 301.037 387.429,302.288 389.191,302.344 387.447 C 302.375 386.483,302.040 385.472,301.600 385.200 C 301.160 384.928,300.825 384.997,300.856 385.353 M302.952 394.092 C 303.479 399.510,303.864 400.266,303.925 396.000 C 303.953 394.020,303.660 391.901,303.274 391.292 C 302.842 390.610,302.718 391.685,302.952 394.092 M260.107 404.400 C 260.051 409.830,260.274 412.014,260.800 411.200 C 261.696 409.814,261.696 402.320,260.800 398.800 C 260.389 397.185,260.162 399.015,260.107 404.400 M303.798 409.767 C 302.339 432.494,293.701 448.569,277.637 458.453 C 275.373 459.847,273.693 461.159,273.904 461.370 C 275.355 462.821,289.650 450.102,294.325 443.200 C 301.479 432.637,305.419 417.811,304.634 404.400 C 304.490 401.944,304.168 404.016,303.798 409.767 M252.229 426.884 C 251.254 427.938,250.742 428.800,251.089 428.800 C 251.437 428.800,252.567 427.900,253.600 426.800 C 254.633 425.700,255.146 424.838,254.739 424.884 C 254.333 424.931,253.203 425.831,252.229 426.884 M220.400 439.221 C 219.332 439.694,219.996 439.771,222.400 439.453 C 224.380 439.192,226.150 438.847,226.333 438.689 C 227.028 438.087,221.928 438.544,220.400 439.221 M200.614 440.580 C 202.052 440.758,204.212 440.754,205.414 440.572 C 206.616 440.389,205.440 440.243,202.800 440.248 C 200.160 440.252,199.176 440.402,200.614 440.580 M254.400 468.800 C 253.333 469.489,253.333 469.575,254.400 469.575 C 255.060 469.575,256.140 469.227,256.800 468.800 C 257.867 468.111,257.867 468.025,256.800 468.025 C 256.140 468.025,255.060 468.373,254.400 468.800 M252.186 472.000 C 252.186 473.540,252.350 474.170,252.551 473.400 C 252.753 472.630,252.753 471.370,252.551 470.600 C 252.350 469.830,252.186 470.460,252.186 472.000 M141.600 471.958 C 142.260 472.408,143.850 472.781,145.133 472.788 C 148.207 472.804,147.569 472.341,143.600 471.676 C 141.307 471.293,140.740 471.372,141.600 471.958 M153.200 473.739 L 155.600 474.515 155.335 493.771 C 155.124 509.149,155.285 513.162,156.135 513.701 C 156.721 514.072,164.940 514.302,174.400 514.211 L 191.600 514.047 174.000 513.624 L 156.400 513.200 156.400 494.000 C 156.400 473.525,156.274 472.756,152.953 472.882 L 150.800 472.963 153.200 473.739 M203.200 475.177 L 190.800 475.600 190.725 478.000 C 190.655 480.264,190.669 480.276,190.976 478.200 L 191.301 476.000 204.036 476.000 L 216.771 476.000 216.986 495.000 L 217.200 514.000 235.000 514.023 L 252.801 514.047 235.215 513.808 L 217.628 513.569 217.414 494.251 C 217.280 482.124,216.902 474.899,216.400 474.843 C 215.960 474.794,210.020 474.944,203.200 475.177 " stroke="none" fill="#666666" fill-rule="evenodd"></path><path id="path3" d="M173.600 3.273 C 153.100 5.548,151.347 5.806,138.000 8.501 C 131.269 9.860,128.546 10.451,122.000 11.973 C 119.800 12.485,117.006 13.102,115.790 13.344 C 114.575 13.586,113.384 14.103,113.143 14.492 C 112.902 14.882,111.822 15.200,110.742 15.200 C 109.662 15.200,108.153 15.519,107.389 15.908 C 106.625 16.297,103.480 17.396,100.400 18.349 C 97.320 19.302,94.080 20.389,93.200 20.765 C 92.320 21.140,88.540 22.617,84.800 24.047 C 74.047 28.157,54.244 37.428,53.733 38.593 C 53.587 38.927,52.807 39.200,52.000 39.200 C 51.193 39.200,50.413 39.470,50.267 39.800 C 50.027 40.339,45.821 42.755,41.006 45.119 C 40.020 45.604,39.210 46.270,39.206 46.600 C 39.203 46.930,38.831 47.200,38.381 47.200 C 37.623 47.200,15.275 61.851,12.173 64.381 C 11.418 64.998,8.921 66.963,6.625 68.750 C 1.917 72.412,1.875 73.286,6.260 76.262 C 7.877 77.359,10.103 79.099,11.207 80.128 C 24.994 92.986,24.717 92.856,29.926 88.929 C 53.195 71.387,82.271 56.083,110.044 46.760 C 121.173 43.024,137.017 39.102,153.600 35.978 C 179.593 31.081,220.407 31.081,246.400 35.978 C 262.983 39.102,278.827 43.024,289.956 46.760 C 317.969 56.163,346.428 71.145,370.074 88.935 C 375.230 92.814,373.973 93.214,383.880 84.545 C 388.566 80.445,393.360 76.464,394.533 75.697 C 398.797 72.912,396.679 70.219,382.800 60.785 C 380.600 59.290,378.102 57.421,377.249 56.633 C 376.396 55.845,375.226 55.200,374.649 55.200 C 374.072 55.200,373.600 54.840,373.600 54.400 C 373.600 53.960,373.220 53.600,372.756 53.600 C 372.292 53.600,369.744 52.128,367.094 50.328 C 364.445 48.529,362.135 47.198,361.963 47.371 C 361.790 47.543,366.048 50.595,371.424 54.152 C 384.387 62.727,395.950 71.379,395.978 72.521 C 395.990 73.028,394.959 74.108,393.687 74.921 C 392.415 75.735,388.626 78.876,385.266 81.901 C 374.267 91.808,375.203 91.443,370.315 87.730 C 362.605 81.872,353.651 75.977,342.400 69.352 C 336.442 65.844,325.967 60.452,318.800 57.204 C 305.376 51.121,304.887 50.916,300.400 49.486 C 298.640 48.925,296.840 48.246,296.400 47.977 C 295.960 47.708,293.980 47.028,292.000 46.466 C 290.020 45.904,287.775 45.119,287.011 44.722 C 286.247 44.325,284.918 44.000,284.058 44.000 C 283.198 44.000,282.272 43.640,282.000 43.200 C 281.728 42.760,280.468 42.400,279.200 42.400 C 277.932 42.400,276.697 42.080,276.455 41.688 C 276.213 41.297,274.841 40.783,273.407 40.546 C 271.973 40.309,269.180 39.710,267.200 39.214 C 226.176 28.940,174.509 28.898,133.200 39.103 C 130.149 39.857,127.721 40.526,121.000 42.466 C 119.350 42.942,117.006 43.524,115.790 43.758 C 114.575 43.993,113.384 44.503,113.143 44.892 C 112.902 45.282,111.848 45.600,110.800 45.600 C 109.752 45.600,108.672 45.960,108.400 46.400 C 108.128 46.840,107.202 47.200,106.342 47.200 C 105.482 47.200,104.153 47.518,103.389 47.907 C 101.640 48.796,98.990 49.882,94.400 51.591 C 87.440 54.182,64.590 65.163,58.000 69.084 C 49.505 74.139,40.890 79.578,38.000 81.711 C 23.752 92.230,26.181 91.970,17.200 83.936 C 13.240 80.394,8.650 76.571,7.000 75.441 C 3.048 72.735,2.988 72.875,10.600 66.944 C 28.495 52.999,54.097 37.970,74.800 29.257 C 79.640 27.220,84.320 25.238,85.200 24.851 C 95.150 20.483,118.317 13.547,133.600 10.361 C 136.020 9.857,139.440 9.138,141.200 8.764 C 175.403 1.495,223.976 1.500,258.800 8.775 C 260.560 9.143,263.980 9.857,266.400 10.361 C 282.383 13.693,304.394 20.340,315.600 25.220 C 316.920 25.795,320.520 27.265,323.600 28.487 C 329.947 31.005,346.330 39.089,355.000 43.981 C 358.190 45.782,360.797 46.972,360.794 46.627 C 360.790 46.282,359.980 45.604,358.994 45.119 C 355.460 43.385,349.993 40.392,349.600 39.979 C 348.107 38.406,318.976 25.070,311.200 22.400 C 309.660 21.871,307.680 21.134,306.800 20.762 C 305.920 20.390,301.960 19.038,298.000 17.757 C 291.490 15.651,288.933 14.882,281.200 12.709 C 273.401 10.518,256.984 7.213,245.600 5.544 C 225.505 2.597,189.827 1.471,173.600 3.273 M194.600 59.793 C 197.570 59.947,202.430 59.947,205.400 59.793 C 208.370 59.639,205.940 59.513,200.000 59.513 C 194.060 59.513,191.630 59.639,194.600 59.793 M170.800 60.826 C 169.814 61.266,172.424 61.357,177.600 61.063 C 182.220 60.800,186.150 60.453,186.333 60.292 C 187.063 59.652,172.294 60.160,170.800 60.826 M214.467 60.295 C 214.650 60.457,218.400 60.807,222.800 61.072 C 227.795 61.373,230.199 61.283,229.200 60.833 C 227.706 60.160,213.738 59.650,214.467 60.295 M159.200 62.400 C 157.673 63.387,160.544 63.409,165.200 62.446 L 168.400 61.784 164.400 61.704 C 162.200 61.660,159.860 61.973,159.200 62.400 M234.800 62.400 C 238.525 63.348,242.267 63.348,240.800 62.400 C 240.140 61.973,237.980 61.662,236.000 61.707 C 232.717 61.782,232.611 61.843,234.800 62.400 M150.400 64.000 C 148.892 64.975,152.157 64.975,155.200 64.000 C 157.033 63.413,156.966 63.354,154.400 63.292 C 152.860 63.255,151.060 63.573,150.400 64.000 M245.200 64.000 C 247.553 65.011,251.164 65.011,249.600 64.000 C 248.940 63.573,247.320 63.244,246.000 63.268 C 243.939 63.306,243.826 63.410,245.200 64.000 M142.400 65.600 C 140.923 66.555,143.049 66.555,146.800 65.600 L 149.200 64.989 146.400 64.907 C 144.860 64.862,143.060 65.173,142.400 65.600 M253.600 65.600 C 256.659 66.580,259.116 66.580,257.600 65.600 C 256.940 65.173,255.320 64.855,254.000 64.892 C 251.648 64.958,251.640 64.972,253.600 65.600 M136.000 67.200 C 134.425 68.218,137.232 68.218,139.600 67.200 C 141.065 66.570,141.032 66.509,139.200 66.468 C 138.100 66.444,136.660 66.773,136.000 67.200 M259.267 66.708 C 259.450 66.878,262.480 67.758,266.000 68.664 C 275.277 71.052,288.621 75.498,296.400 78.791 C 310.768 84.874,326.212 92.700,332.123 96.894 C 333.291 97.722,334.433 98.400,334.661 98.400 C 335.699 98.400,351.086 109.284,352.185 110.795 C 352.507 111.238,352.147 112.049,351.385 112.598 C 350.623 113.146,349.123 114.226,348.051 114.998 C 344.723 117.393,341.446 120.224,336.475 125.000 C 331.763 129.528,330.400 130.380,330.400 128.800 C 330.400 128.360,329.860 128.000,329.200 128.000 C 328.540 128.000,328.000 127.640,328.000 127.200 C 328.000 126.760,327.625 126.400,327.167 126.400 C 326.708 126.400,325.560 125.680,324.616 124.800 C 323.671 123.920,322.426 123.200,321.849 123.200 C 321.272 123.200,320.800 122.882,320.800 122.493 C 320.800 122.105,320.170 121.587,319.400 121.343 C 317.942 120.880,313.495 118.328,312.800 117.555 C 309.404 113.778,274.654 99.655,257.606 95.124 C 234.338 88.940,197.222 86.018,177.353 88.808 C 174.189 89.252,168.900 89.994,165.600 90.458 C 137.490 94.404,99.393 108.417,80.677 121.694 C 79.509 122.522,78.249 123.201,77.877 123.202 C 77.504 123.203,75.940 124.282,74.400 125.600 C 72.860 126.918,71.150 127.997,70.600 127.998 C 70.050 127.999,69.600 128.385,69.600 128.854 C 69.600 129.992,65.202 126.821,61.083 122.715 C 59.258 120.896,56.378 118.371,54.683 117.104 C 52.987 115.837,51.124 114.350,50.543 113.800 C 49.961 113.250,49.151 112.800,48.743 112.800 C 47.107 112.800,48.136 109.864,50.200 108.642 C 51.410 107.925,53.379 106.498,54.576 105.469 C 62.923 98.301,96.466 80.812,111.200 75.947 C 120.694 72.813,128.982 69.709,127.990 69.660 C 118.792 69.204,76.619 89.180,54.000 104.706 C 45.516 110.530,44.896 111.503,48.323 113.615 C 49.381 114.267,54.236 118.310,59.113 122.600 C 69.522 131.756,68.122 131.446,75.760 126.292 C 87.496 118.373,103.210 110.054,114.800 105.625 C 115.680 105.289,117.300 104.642,118.400 104.188 C 119.500 103.733,121.660 102.929,123.200 102.400 C 124.740 101.871,126.720 101.165,127.600 100.830 C 130.024 99.908,134.274 98.607,139.600 97.154 C 177.079 86.935,215.543 86.299,253.000 95.281 C 254.650 95.676,257.350 96.327,259.000 96.726 C 265.419 98.280,274.040 101.107,281.400 104.074 C 282.390 104.473,284.010 105.123,285.000 105.518 C 298.196 110.785,312.417 118.314,324.240 126.292 C 331.498 131.190,331.533 131.193,335.600 127.391 C 340.773 122.556,351.080 113.747,352.485 112.960 C 355.019 111.542,352.743 109.161,342.201 102.199 C 319.493 87.202,297.370 76.809,272.800 69.594 C 269.500 68.625,265.756 67.510,264.481 67.116 C 262.165 66.401,258.636 66.125,259.267 66.708 M130.000 68.800 C 129.410 69.755,130.977 69.755,133.200 68.800 C 134.629 68.186,134.569 68.106,132.647 68.056 C 131.463 68.025,130.272 68.360,130.000 68.800 M186.800 121.722 C 176.650 122.262,170.537 123.008,161.600 124.799 C 159.180 125.284,155.848 125.881,154.195 126.125 C 152.542 126.369,150.991 126.891,150.748 127.285 C 150.505 127.678,149.268 128.000,148.000 128.000 C 146.732 128.000,145.472 128.360,145.200 128.800 C 144.928 129.240,143.848 129.600,142.800 129.600 C 141.752 129.600,140.672 129.960,140.400 130.400 C 140.128 130.840,139.048 131.200,138.000 131.200 C 136.952 131.200,135.872 131.560,135.600 132.000 C 135.328 132.440,134.402 132.800,133.542 132.800 C 132.682 132.800,131.353 133.121,130.589 133.512 C 129.825 133.904,127.580 134.945,125.600 135.825 C 105.605 144.715,93.193 152.144,94.440 154.476 C 94.889 155.314,95.560 156.000,95.932 156.000 C 96.536 156.000,106.923 164.765,113.200 170.572 C 116.235 173.380,117.383 173.358,122.400 170.400 C 124.639 169.080,126.599 168.000,126.756 168.000 C 126.913 168.000,130.047 166.603,133.721 164.895 C 173.861 146.238,226.691 146.340,266.862 165.152 C 270.206 166.719,273.075 168.000,273.236 168.000 C 273.398 168.000,275.361 169.080,277.600 170.400 C 282.960 173.561,283.634 173.462,288.800 168.756 C 291.220 166.552,295.900 162.553,299.200 159.870 C 302.500 157.187,305.468 154.535,305.795 153.976 C 306.833 152.203,292.166 143.724,274.400 135.825 C 272.420 134.945,270.175 133.904,269.411 133.512 C 268.647 133.121,267.318 132.800,266.458 132.800 C 265.598 132.800,264.672 132.440,264.400 132.000 C 264.128 131.560,263.048 131.200,262.000 131.200 C 260.952 131.200,259.872 130.840,259.600 130.400 C 259.328 129.960,258.248 129.600,257.200 129.600 C 256.152 129.600,255.072 129.240,254.800 128.800 C 254.528 128.360,253.268 128.000,252.000 128.000 C 250.732 128.000,249.495 127.678,249.252 127.285 C 249.009 126.891,247.458 126.369,245.805 126.125 C 244.152 125.881,240.820 125.284,238.400 124.799 C 235.980 124.314,231.840 123.605,229.200 123.224 C 226.560 122.842,223.500 122.338,222.400 122.104 C 218.961 121.372,197.675 121.144,186.800 121.722 M222.646 123.253 C 252.746 127.712,273.507 134.707,296.600 148.167 C 305.223 153.194,305.956 154.000,302.943 155.146 C 301.109 155.843,285.450 168.562,284.933 169.774 C 284.540 170.697,280.000 170.536,280.000 169.600 C 280.000 169.160,279.280 168.800,278.400 168.800 C 277.520 168.800,276.800 168.440,276.800 168.000 C 276.800 167.560,276.059 167.200,275.153 167.200 C 274.247 167.200,273.728 166.840,274.000 166.400 C 274.280 165.946,273.608 165.600,272.447 165.600 C 271.321 165.600,270.400 165.240,270.400 164.800 C 270.400 164.360,269.871 164.000,269.224 164.000 C 268.578 164.000,266.767 163.280,265.200 162.400 C 263.633 161.520,261.714 160.800,260.936 160.800 C 260.157 160.800,259.178 160.482,258.760 160.093 C 257.974 159.362,250.801 156.857,245.200 155.358 C 216.938 147.792,182.129 147.722,156.000 155.179 C 152.700 156.121,148.872 157.184,147.494 157.540 C 146.115 157.897,143.810 158.777,142.371 159.495 C 140.932 160.213,139.432 160.800,139.038 160.800 C 138.645 160.800,136.832 161.520,135.011 162.400 C 133.190 163.280,131.227 164.000,130.650 164.000 C 130.072 164.000,129.600 164.360,129.600 164.800 C 129.600 165.240,128.880 165.600,128.000 165.600 C 127.120 165.600,126.400 165.960,126.400 166.400 C 126.400 166.840,125.680 167.200,124.800 167.200 C 123.920 167.200,123.200 167.560,123.200 168.000 C 123.200 168.440,122.480 168.800,121.600 168.800 C 120.720 168.800,120.000 169.160,120.000 169.600 C 120.000 171.300,115.785 170.340,113.721 168.169 C 112.554 166.942,110.340 165.067,108.800 164.002 C 107.260 162.937,104.560 160.694,102.800 159.019 C 101.040 157.344,98.816 155.767,97.858 155.514 C 90.420 153.556,121.340 136.580,143.600 130.401 C 153.352 127.694,162.203 125.654,168.000 124.776 C 171.740 124.210,176.240 123.484,178.000 123.161 C 183.033 122.240,216.268 122.308,222.646 123.253 M156.549 204.518 C 156.247 204.820,156.000 215.238,156.000 227.670 L 156.000 250.273 153.800 250.721 C 152.590 250.967,148.720 251.538,145.200 251.990 C 141.680 252.442,137.540 253.093,136.000 253.438 L 133.200 254.066 132.997 361.403 C 132.805 463.015,132.869 468.780,134.197 469.488 C 136.092 470.497,148.621 472.800,152.215 472.800 C 156.375 472.800,156.400 472.925,156.400 494.000 L 156.400 513.200 173.878 513.416 L 191.356 513.632 191.093 494.616 L 190.830 475.600 203.615 475.200 C 210.647 474.980,216.670 474.911,217.000 475.047 C 217.330 475.183,217.600 483.913,217.600 494.447 L 217.600 513.600 235.276 513.600 L 252.951 513.600 252.676 491.637 L 252.400 469.674 254.238 468.837 C 255.248 468.377,256.593 468.000,257.225 468.000 C 261.723 468.000,279.251 458.262,285.831 452.107 C 308.068 431.306,310.465 389.652,290.629 368.701 C 285.811 363.613,277.774 358.449,271.257 356.256 C 265.427 354.295,264.819 353.223,268.433 351.285 C 299.541 334.602,301.463 285.057,271.767 265.346 C 266.770 262.029,258.277 257.643,255.326 256.854 L 253.200 256.286 252.800 230.343 L 252.400 204.400 235.657 204.183 C 226.448 204.064,218.596 204.284,218.208 204.672 C 217.820 205.060,217.535 215.147,217.574 227.088 L 217.645 248.800 204.435 248.800 L 191.225 248.800 191.013 226.600 L 190.800 204.400 173.949 204.185 C 164.681 204.066,156.851 204.216,156.549 204.518 M190.248 206.600 C 190.497 207.897,189.303 208.000,174.059 208.000 C 158.077 208.000,157.600 207.953,157.600 206.383 C 157.600 204.043,189.798 204.256,190.248 206.600 M251.102 205.523 C 254.154 207.455,250.647 208.000,235.153 208.000 C 219.733 208.000,219.200 207.947,219.200 206.400 C 219.200 204.669,248.483 203.864,251.102 205.523 M217.105 250.874 C 220.796 252.291,216.326 252.784,204.144 252.304 C 190.175 251.755,189.310 251.621,191.223 250.301 C 192.451 249.454,214.688 249.947,217.105 250.874 M155.908 252.726 C 157.671 253.843,154.819 254.903,148.400 255.518 C 145.320 255.812,140.893 256.339,138.562 256.688 C 134.419 257.309,132.562 256.743,134.587 255.477 C 137.158 253.870,154.235 251.667,155.908 252.726 M263.160 261.877 C 269.946 265.213,278.889 272.602,282.600 277.939 C 283.541 279.292,281.365 277.610,277.764 274.200 C 274.164 270.790,270.674 268.000,270.009 268.000 C 269.344 268.000,268.800 267.704,268.800 267.342 C 268.800 266.770,264.149 264.480,254.557 260.329 C 251.712 259.097,251.803 257.202,254.667 258.044 C 255.620 258.325,259.442 260.049,263.160 261.877 M219.600 283.584 C 240.408 287.426,248.548 293.104,251.161 305.600 C 252.832 313.587,249.770 324.470,244.320 329.920 C 236.479 337.761,219.459 341.124,190.000 340.655 L 174.000 340.400 173.790 312.218 L 173.580 284.036 175.390 283.642 C 179.548 282.737,181.940 282.613,197.200 282.510 C 208.312 282.435,215.155 282.763,219.600 283.584 M243.524 333.999 C 242.246 335.098,240.750 335.998,240.200 335.999 C 239.650 336.000,239.200 336.272,239.200 336.604 C 239.200 338.177,227.295 341.584,216.246 343.173 C 209.335 344.166,175.200 344.287,175.200 343.317 C 175.200 342.942,185.370 342.423,197.800 342.163 C 210.812 341.892,221.758 341.304,223.600 340.778 C 225.360 340.276,228.240 339.494,230.000 339.041 C 235.719 337.569,240.452 335.476,242.751 333.400 C 243.604 332.630,244.650 332.000,245.075 332.000 C 245.501 332.000,244.803 332.900,243.524 333.999 M276.882 360.556 C 284.423 364.630,283.206 364.841,275.071 360.870 C 271.402 359.080,269.077 357.612,269.904 357.608 C 270.732 357.603,273.871 358.930,276.882 360.556 M223.600 373.953 C 254.074 377.894,264.849 389.508,260.384 413.600 C 257.914 426.929,245.459 435.717,224.000 439.273 C 217.721 440.313,180.380 440.562,175.969 439.593 L 173.600 439.073 173.600 405.936 L 173.600 372.800 194.200 372.807 C 207.315 372.812,217.998 373.228,223.600 373.953 M256.800 425.947 C 256.800 429.680,243.690 438.809,235.228 440.968 C 223.909 443.855,219.267 444.269,198.400 444.254 C 177.243 444.239,173.231 443.892,173.828 442.132 C 174.197 441.045,177.521 440.991,193.600 441.810 C 206.437 442.465,224.457 441.089,233.600 438.757 C 243.108 436.332,256.000 428.754,256.000 425.589 C 256.000 425.155,256.180 424.800,256.400 424.800 C 256.620 424.800,256.800 425.316,256.800 425.947 M189.600 496.800 L 189.600 512.800 173.600 512.800 L 157.600 512.800 157.600 496.800 L 157.600 480.800 173.600 480.800 L 189.600 480.800 189.600 496.800 M250.400 496.800 L 250.400 512.800 234.714 512.800 C 220.740 512.800,219.082 512.662,219.514 511.535 C 219.781 510.839,220.000 503.639,220.000 495.535 L 220.000 480.800 235.200 480.800 L 250.400 480.800 250.400 496.800 " stroke="none" fill="#d2d2d2" fill-rule="evenodd"></path><path id="path4" d="M175.200 4.111 C 163.872 5.125,148.285 7.258,141.200 8.764 C 139.440 9.138,136.020 9.857,133.600 10.361 C 118.317 13.547,95.150 20.483,85.200 24.851 C 84.320 25.238,79.640 27.220,74.800 29.257 C 54.097 37.970,28.495 52.999,10.600 66.944 C 2.988 72.875,3.048 72.735,7.000 75.441 C 8.650 76.571,13.240 80.394,17.200 83.936 C 26.181 91.970,23.752 92.230,38.000 81.711 C 40.890 79.578,49.505 74.139,58.000 69.084 C 64.590 65.163,87.440 54.182,94.400 51.591 C 98.990 49.882,101.640 48.796,103.389 47.907 C 104.153 47.518,105.482 47.200,106.342 47.200 C 107.202 47.200,108.128 46.840,108.400 46.400 C 108.672 45.960,109.752 45.600,110.800 45.600 C 111.848 45.600,112.902 45.282,113.143 44.892 C 113.384 44.503,114.575 43.993,115.790 43.758 C 117.006 43.524,119.350 42.942,121.000 42.466 C 127.721 40.526,130.149 39.857,133.200 39.103 C 174.509 28.898,226.176 28.940,267.200 39.214 C 269.180 39.710,271.973 40.309,273.407 40.546 C 274.841 40.783,276.213 41.297,276.455 41.688 C 276.697 42.080,277.932 42.400,279.200 42.400 C 280.468 42.400,281.728 42.760,282.000 43.200 C 282.272 43.640,283.198 44.000,284.058 44.000 C 284.918 44.000,286.247 44.325,287.011 44.722 C 287.775 45.119,290.020 45.904,292.000 46.466 C 293.980 47.028,295.960 47.708,296.400 47.977 C 296.840 48.246,298.640 48.925,300.400 49.486 C 304.887 50.916,305.376 51.121,318.800 57.204 C 325.967 60.452,336.442 65.844,342.400 69.352 C 353.651 75.977,362.605 81.872,370.315 87.730 C 375.203 91.443,374.267 91.808,385.266 81.901 C 388.626 78.876,392.415 75.735,393.687 74.921 C 397.034 72.782,396.685 72.153,388.972 66.401 C 368.135 50.863,342.530 36.014,323.600 28.491 C 320.520 27.267,316.920 25.795,315.600 25.220 C 304.394 20.340,282.383 13.693,266.400 10.361 C 263.980 9.857,260.560 9.143,258.800 8.775 C 235.684 3.946,199.550 1.930,175.200 4.111 M179.200 60.869 C 138.598 64.335,102.547 76.089,66.976 97.458 C 61.354 100.836,55.774 104.441,54.576 105.469 C 53.379 106.498,51.410 107.925,50.200 108.642 C 48.136 109.864,47.107 112.800,48.743 112.800 C 49.151 112.800,49.961 113.250,50.543 113.800 C 51.124 114.350,52.987 115.837,54.683 117.104 C 56.378 118.371,59.258 120.896,61.083 122.715 C 65.202 126.821,69.600 129.992,69.600 128.854 C 69.600 128.385,70.050 127.999,70.600 127.998 C 71.150 127.997,72.860 126.918,74.400 125.600 C 75.940 124.282,77.504 123.203,77.877 123.202 C 78.249 123.201,79.509 122.522,80.677 121.694 C 99.393 108.417,137.490 94.404,165.600 90.458 C 168.900 89.994,174.189 89.252,177.353 88.808 C 197.222 86.018,234.338 88.940,257.606 95.124 C 274.654 99.655,309.404 113.778,312.800 117.555 C 313.495 118.328,317.942 120.880,319.400 121.343 C 320.170 121.587,320.800 122.105,320.800 122.493 C 320.800 122.882,321.272 123.200,321.849 123.200 C 322.426 123.200,323.671 123.920,324.616 124.800 C 325.560 125.680,326.708 126.400,327.167 126.400 C 327.625 126.400,328.000 126.760,328.000 127.200 C 328.000 127.640,328.540 128.000,329.200 128.000 C 329.860 128.000,330.400 128.360,330.400 128.800 C 330.400 130.380,331.763 129.528,336.475 125.000 C 341.446 120.224,344.723 117.393,348.051 114.998 C 349.123 114.226,350.623 113.146,351.385 112.598 C 352.147 112.049,352.507 111.238,352.185 110.795 C 351.086 109.284,335.699 98.400,334.661 98.400 C 334.433 98.400,333.291 97.722,332.123 96.894 C 325.038 91.867,304.368 81.718,290.400 76.406 C 256.613 63.558,215.305 57.786,179.200 60.869 M178.000 123.161 C 176.240 123.484,171.740 124.210,168.000 124.776 C 162.203 125.654,153.352 127.694,143.600 130.401 C 132.367 133.519,114.440 141.502,102.072 148.894 C 95.240 152.977,94.233 154.560,97.858 155.514 C 98.816 155.767,101.040 157.344,102.800 159.019 C 104.560 160.694,107.260 162.937,108.800 164.002 C 110.340 165.067,112.554 166.942,113.721 168.169 C 115.785 170.340,120.000 171.300,120.000 169.600 C 120.000 169.160,120.720 168.800,121.600 168.800 C 122.480 168.800,123.200 168.440,123.200 168.000 C 123.200 167.560,123.920 167.200,124.800 167.200 C 125.680 167.200,126.400 166.840,126.400 166.400 C 126.400 165.960,127.120 165.600,128.000 165.600 C 128.880 165.600,129.600 165.240,129.600 164.800 C 129.600 164.360,130.072 164.000,130.650 164.000 C 131.227 164.000,133.190 163.280,135.011 162.400 C 136.832 161.520,138.645 160.800,139.038 160.800 C 139.432 160.800,140.932 160.213,142.371 159.495 C 143.810 158.777,146.115 157.897,147.494 157.540 C 148.872 157.184,152.700 156.121,156.000 155.179 C 182.129 147.722,216.938 147.792,245.200 155.358 C 250.801 156.857,257.974 159.362,258.760 160.093 C 259.178 160.482,260.157 160.800,260.936 160.800 C 261.714 160.800,263.633 161.520,265.200 162.400 C 266.767 163.280,268.578 164.000,269.224 164.000 C 269.871 164.000,270.400 164.360,270.400 164.800 C 270.400 165.240,271.321 165.600,272.447 165.600 C 273.608 165.600,274.280 165.946,274.000 166.400 C 273.728 166.840,274.247 167.200,275.153 167.200 C 276.059 167.200,276.800 167.560,276.800 168.000 C 276.800 168.440,277.520 168.800,278.400 168.800 C 279.280 168.800,280.000 169.160,280.000 169.600 C 280.000 170.536,284.540 170.697,284.933 169.774 C 285.450 168.562,301.109 155.843,302.943 155.146 C 305.956 154.000,305.223 153.194,296.600 148.167 C 273.507 134.707,252.746 127.712,222.646 123.253 C 216.268 122.308,183.033 122.240,178.000 123.161 M157.600 206.383 C 157.600 207.953,158.077 208.000,174.059 208.000 C 189.303 208.000,190.497 207.897,190.248 206.600 C 189.798 204.256,157.600 204.043,157.600 206.383 M219.200 206.400 C 219.200 208.282,250.508 208.967,251.655 207.111 C 252.798 205.261,249.554 204.824,234.600 204.812 C 219.729 204.800,219.200 204.855,219.200 206.400 M191.223 250.301 C 189.310 251.621,190.175 251.755,204.144 252.304 C 216.326 252.784,220.796 252.291,217.105 250.874 C 214.688 249.947,192.451 249.454,191.223 250.301 M143.600 253.500 C 139.200 254.239,135.144 255.129,134.587 255.477 C 132.562 256.743,134.419 257.309,138.562 256.688 C 140.893 256.339,145.320 255.812,148.400 255.518 C 154.819 254.903,157.671 253.843,155.908 252.726 C 154.464 251.811,153.160 251.893,143.600 253.500 M252.425 258.360 C 252.144 258.814,253.104 259.700,254.557 260.329 C 264.149 264.480,268.800 266.770,268.800 267.342 C 268.800 267.704,269.344 268.000,270.009 268.000 C 270.674 268.000,274.164 270.790,277.764 274.200 C 281.365 277.610,283.541 279.292,282.600 277.939 C 276.461 269.110,254.562 254.901,252.425 258.360 M242.751 333.400 C 240.452 335.476,235.719 337.569,230.000 339.041 C 228.240 339.494,225.360 340.276,223.600 340.778 C 221.758 341.304,210.812 341.892,197.800 342.163 C 185.370 342.423,175.200 342.942,175.200 343.317 C 175.200 344.287,209.335 344.166,216.246 343.173 C 227.295 341.584,239.200 338.177,239.200 336.604 C 239.200 336.272,239.650 336.000,240.200 335.999 C 240.750 335.998,242.246 335.098,243.524 333.999 C 244.803 332.900,245.501 332.000,245.075 332.000 C 244.650 332.000,243.604 332.630,242.751 333.400 M275.071 360.870 C 278.739 362.661,281.879 363.988,282.048 363.819 C 282.584 363.283,271.473 357.600,269.904 357.608 C 269.077 357.612,271.402 359.080,275.071 360.870 M256.000 425.589 C 256.000 428.754,243.108 436.332,233.600 438.757 C 224.457 441.089,206.437 442.465,193.600 441.810 C 177.521 440.991,174.197 441.045,173.828 442.132 C 173.231 443.892,177.243 444.239,198.400 444.254 C 229.760 444.277,243.248 441.007,252.971 431.024 C 256.242 427.666,257.821 424.800,256.400 424.800 C 256.180 424.800,256.000 425.155,256.000 425.589 M157.600 496.800 L 157.600 512.800 173.600 512.800 L 189.600 512.800 189.600 496.800 L 189.600 480.800 173.600 480.800 L 157.600 480.800 157.600 496.800 M220.000 495.535 C 220.000 503.639,219.781 510.839,219.514 511.535 C 219.082 512.662,220.740 512.800,234.714 512.800 L 250.400 512.800 250.400 496.800 L 250.400 480.800 235.200 480.800 L 220.000 480.800 220.000 495.535 " stroke="none" fill="#fcfcfc" fill-rule="evenodd"></path></g></svg>
