<svg width="53" height="17" viewBox="0 0 53 17" fill="none" xmlns="http://www.w3.org/2000/svg">
<path fill-rule="evenodd" clip-rule="evenodd" d="M21.6231 8.35747C21.4167 7.19253 20.3845 6.25032 19.0943 6.25032C17.8731 6.25032 16.7721 7.07254 16.5656 8.35747H21.6231ZM16.5485 9.72804C16.8924 11.1157 18.0278 11.9381 19.2835 11.9381C20.3502 11.9381 21.2791 11.3728 21.8639 10.8073L22.8961 12.0579C21.7779 13.1545 20.4362 13.5998 19.2665 13.5998C16.6518 13.5998 14.7595 11.4755 14.7595 9.05985C14.7595 6.61014 16.6861 4.75977 19.1117 4.75977C21.6059 4.75977 23.481 6.72997 23.481 9.72804H16.5485Z" fill="#0F4A74"/>
<path fill-rule="evenodd" clip-rule="evenodd" d="M31.1969 9.13967C31.1969 7.63553 29.9946 6.42547 28.5381 6.42547C27.0816 6.42547 25.8793 7.63553 25.8793 9.13967C25.8793 10.6264 27.0816 11.8366 28.5381 11.8366C29.9946 11.8366 31.1969 10.6264 31.1969 9.13967ZM31.18 5.71653V1.35986H32.8734V13.4617H31.4339V12.3725C30.6888 13.1158 29.6558 13.5999 28.5212 13.5999C26.0995 13.5999 24.1519 11.5944 24.1519 9.13967C24.1519 6.66748 26.0995 4.67932 28.5212 4.67932C29.5372 4.67932 30.4857 5.07707 31.18 5.71653Z" fill="#0F4A74"/>
<path fill-rule="evenodd" clip-rule="evenodd" d="M41.2634 9.17032C41.2634 7.68298 40.0635 6.46936 38.6098 6.46936C37.1562 6.46936 35.9391 7.68298 35.9391 9.17032C35.9391 10.6405 37.1393 11.8542 38.6098 11.8542C40.0803 11.8542 41.2634 10.6405 41.2634 9.17032ZM42.9367 12.4696C42.9367 15.7348 40.9592 16.9998 39.0493 16.9998C38.3394 16.9998 37.4773 16.8289 36.6491 16.2648L37.3083 14.8458C37.8662 15.1707 38.3563 15.3417 38.9479 15.3417C40.3508 15.3417 41.3142 14.3672 41.3142 12.4868C40.5704 13.1705 39.6409 13.5807 38.5929 13.5807C36.1759 13.5807 34.2152 11.5977 34.2152 9.17032C34.2152 6.74279 36.1759 4.75977 38.5929 4.75977C39.7085 4.75977 40.7226 5.20426 41.4663 5.95632V4.89656H42.9367V12.4696Z" fill="#0F4A74"/>
<mask id="mask0" mask-type="alpha" maskUnits="userSpaceOnUse" x="43" y="4" width="10" height="10">
<path d="M43.6181 4.76758H52.7275V13.6001H43.6181V4.76758Z" fill="white"/>
</mask>
<g mask="url(#mask0)">
<path fill-rule="evenodd" clip-rule="evenodd" d="M50.9299 8.36222C50.7301 7.19827 49.7316 6.25687 48.4833 6.25687C47.3016 6.25687 46.2364 7.07839 46.0367 8.36222H50.9299ZM46.0201 9.73163C46.3529 11.1181 47.4514 11.9398 48.6663 11.9398C49.6982 11.9398 50.5971 11.375 51.1629 10.81L52.1616 12.0595C51.0797 13.1551 49.7814 13.6001 48.6498 13.6001C46.12 13.6001 44.289 11.4776 44.289 9.06401C44.289 6.61637 46.1532 4.76758 48.4999 4.76758C50.9133 4.76758 52.7275 6.73611 52.7275 9.73163H46.0201Z" fill="#0F4A74"/>
</g>
<path fill-rule="evenodd" clip-rule="evenodd" d="M12.7468 2.72021L9.10669 12.2402H0.670883L2.56341 7.29013L5.88802 7.29039L7.63577 2.72021H12.7468Z" fill="#66EDA8"/>
<path fill-rule="evenodd" clip-rule="evenodd" d="M6.70886 0L4.71921 5.44H0L1.99068 0H6.70886Z" fill="#66EDA8"/>
</svg>
